<svg width="492" height="484" viewBox="0 0 492 484" fill="none" xmlns="http://www.w3.org/2000/svg">
<path d="M132.213 483.572C121.64 483.572 112.579 480.401 105.601 474.087C93.3071 463.062 86.7523 442.658 86.0727 413.419C85.9519 407.543 87.8549 396.05 90.2865 381.506C96.7355 342.782 106.492 284.257 86.0576 273.912C77.766 269.728 60.3824 276.268 43.6785 282.611C26.9745 288.954 11.2824 294.844 4.41053 290.329C3.2677 289.514 2.34234 288.43 1.71563 287.174C1.08892 285.918 0.780015 284.528 0.816008 283.125C0.151473 270.468 -0.226103 226.881 23.0175 197.868C31.6413 187.145 43.3764 179.94 54.7641 173.008C64.128 167.314 73.809 161.424 81.7381 153.571C103.502 132.019 121.233 102.462 135.701 76.394C138.556 71.2589 141.501 64.7646 144.612 57.9079C156.272 32.2327 170.771 0.168904 196.854 0.788129C223.661 1.43756 247.857 19.0628 271.266 36.0991C285.705 46.6712 300.627 57.485 315.866 64.085C321.342 66.3199 327.002 68.0784 332.781 69.3409C345.256 72.3615 356.025 75.0196 361.9 91.9954C366.929 106.615 367.714 121.25 368.485 135.402C369.557 155.141 370.569 173.809 382.077 192.793C388.964 204.196 400.79 214.496 413.326 225.401C432.96 242.467 453.198 260.138 454.361 283.019C455.07 296.989 464.253 307.184 473.134 317.167C483.268 328.494 493.749 340.199 491.031 357.22C486.772 383.862 446.341 409.99 419.578 427.283C413.537 431.21 408.281 434.593 404.067 437.553C399.854 440.513 394.9 444.425 389.719 448.488C367.76 465.735 340.423 487.212 317.029 481.911C303.134 478.769 291.686 468.197 280.615 457.973C267.475 445.89 255.061 434.366 239.61 435.726C223.858 437.115 208.362 447.385 191.96 458.244C174.561 469.768 156.574 481.684 137.166 483.346C135.445 483.512 133.798 483.572 132.213 483.572ZM79.3519 271.102C81.8781 271.026 84.387 271.543 86.6768 272.613C108.108 283.457 98.2458 342.646 91.7061 381.793C89.3652 396.216 87.5226 407.649 87.5226 413.388C88.1871 442.19 94.5908 462.232 106.537 472.955C114.3 479.932 124.525 482.923 136.925 481.85C155.939 480.234 173.761 468.424 191.009 457.006C207.622 446.026 223.223 435.665 239.338 434.246C255.453 432.826 268.125 444.501 281.506 456.9C292.426 466.989 303.723 477.425 317.225 480.491C339.879 485.626 366.944 464.406 388.647 447.34C393.843 443.262 398.751 439.411 403.056 436.375C407.36 433.339 412.54 429.987 418.627 426.06C445.148 408.918 485.246 383.016 489.4 357.024C491.997 340.712 482.226 329.838 471.865 318.224C462.803 308.105 453.439 297.654 452.714 283.155C451.582 260.878 431.57 243.434 412.193 226.579C399.567 215.599 387.65 205.223 380.643 193.624C368.998 174.337 367.926 154.613 366.899 135.553C366.144 121.507 365.388 106.978 360.389 92.5693C354.847 76.2883 344.969 73.8718 332.434 70.8512C326.565 69.5711 320.819 67.7822 315.261 65.5047C299.887 58.7687 284.874 47.8945 270.375 37.3224C247.162 20.4221 223.148 2.88745 196.808 2.29843C171.767 1.649 157.465 33.1993 145.987 58.5271C142.86 65.4292 139.945 71.9386 137.03 77.134C122.501 103.293 104.695 133.015 82.8104 154.643C74.7454 162.632 64.9889 168.553 55.625 174.277C44.343 181.134 32.6683 188.232 24.2106 198.804C1.22379 227.409 1.60136 270.513 2.2659 283.049C2.21172 284.217 2.44828 285.381 2.95437 286.435C3.46046 287.489 4.22027 288.402 5.16569 289.09C11.4637 293.198 27.5635 287.112 43.1348 281.221C56.3197 276.253 69.852 271.102 79.4123 271.102H79.3519Z" fill="#9077FF"/>
<path d="M134.146 475.613C123.377 475.613 114.376 472.335 107.368 465.826C93.1712 452.686 89.6824 428.884 89.2444 411.244C89.048 403.012 90.9963 390.462 93.2618 375.933C98.8197 340.184 106.447 291.25 83.3995 280.648C77.1317 277.778 63.2822 282.158 49.8858 286.402C34.662 291.356 18.7887 296.294 11.7506 291.537C10.5994 290.71 9.65809 289.625 9.00234 288.369C8.34658 287.112 7.99468 285.72 7.97488 284.302C6.23803 261.406 10.9955 229.191 29.7535 207.443C38.483 197.279 50.1275 190.92 61.3793 184.788C71.3624 179.351 81.6627 173.718 90.0751 165.441C111.506 144.222 126.141 115.345 138.163 89.9262C140.489 85.0026 142.966 78.6442 145.594 71.9083C156.166 44.7228 170.665 7.52398 197.352 8.88325C221.109 10.0915 243.416 24.9831 264.999 39.3763C277.081 47.396 289.481 55.7027 301.956 61.4419C308.553 64.2074 315.437 66.2335 322.481 67.4831C336.527 70.5037 349.802 73.3582 355.254 90.1377C359.906 104.38 361.598 118.546 363.229 132.245C365.751 153.48 368.137 173.522 380.628 193.82C387.046 204.241 397.241 214.27 408.206 224.887C426.45 242.709 445.329 261.134 447.051 283.064C448.032 295.569 455.81 305.507 463.332 315.113C472.092 326.289 481.138 337.843 479.054 353.248C475.263 381.415 439.393 405.051 413.22 422.299C407.556 426.03 402.225 429.548 397.754 432.735C393.843 435.544 389.433 439.048 384.781 442.749C363.289 459.815 336.542 481.065 312.634 472.819C300.128 468.514 289.496 459.332 279.211 450.451C266.781 439.713 255.046 429.579 241.166 428.748C225.429 427.842 209.45 438.731 192.61 450.27C175.12 462.171 157.072 474.525 137.046 475.613C136.064 475.613 135.097 475.613 134.146 475.613ZM78.1285 278.246C80.1562 278.172 82.1759 278.538 84.0489 279.318C108.123 290.374 100.662 337.964 94.7721 376.189C92.5217 390.643 90.5734 403.133 90.7698 411.228C91.1927 428.597 94.5909 452.007 108.38 464.754C115.72 471.55 125.341 474.661 136.955 474.072C156.589 473.03 174.441 460.812 191.719 448.971C208.996 437.13 224.96 426.226 241.211 427.283C255.604 428.129 267.536 438.429 280.147 449.333C290.326 458.123 300.853 467.216 313.072 471.429C336.209 479.389 362.594 458.441 383.799 441.586C388.466 437.885 392.861 434.366 396.833 431.542C401.364 428.325 406.68 424.806 412.344 421.061C438.276 403.979 473.813 380.569 477.514 353.097C479.507 338.326 471.049 327.527 462.108 316.094C454.436 306.308 446.522 296.189 445.495 283.23C443.819 261.859 425.151 243.645 407.103 226.02C396.153 215.327 385.808 205.238 379.298 194.651C366.627 174.08 364.12 152.921 361.688 132.472C360.057 118.879 358.381 104.742 353.774 90.6512C348.579 74.7628 336.315 72.1197 322.058 69.0689C314.903 67.7869 307.913 65.7152 301.216 62.8918C288.65 57.1073 276.145 48.7553 264.047 40.7054C242.646 26.4179 220.505 11.6622 197.171 10.4993C171.601 9.21552 157.299 45.8253 146.893 72.5728C144.265 79.3239 141.773 85.6974 139.417 90.6965C127.334 116.221 112.639 145.249 91.087 166.635C82.5839 175.062 72.1779 180.741 62.1042 186.269C50.9733 192.31 39.4496 198.638 30.9013 208.591C12.5058 229.992 7.77854 261.754 9.48518 284.348C9.49567 285.528 9.78257 286.689 10.3229 287.738C10.8632 288.787 11.6418 289.695 12.5964 290.389C19.0303 294.739 34.4807 289.845 49.4327 285.103C60.3371 281.554 70.7733 278.246 78.1285 278.246Z" fill="#9077FF"/>
<path d="M136.577 467.533C126.005 467.533 117.291 464.512 110.419 458.562C99.5899 449.168 93.5185 432.599 92.2951 409.326C91.9024 401.381 93.4429 389.692 95.2251 376.099C99.756 341.936 105.299 299.421 83.7468 288.864C76.4822 285.315 63.6748 288.864 51.2903 292.232C38.2866 295.811 25.9927 299.194 19.4531 294.905C18.198 294.029 17.151 292.887 16.3862 291.562C15.6215 290.236 15.1578 288.758 15.0279 287.233C12.0073 266.27 19 234.901 38.1809 215.478C46.9105 206.643 57.8149 201.342 68.387 196.207C78.9591 191.072 89.5313 185.952 98.2608 177.358C119.148 156.742 131.956 128.107 142.664 100.242C144.174 96.2697 145.866 91.2857 147.633 86.0147C156.936 58.2704 170.982 16.3444 198.288 18.1265C219.78 19.5009 240.214 31.825 259.969 43.6658C272.988 51.5043 286.46 59.6146 300.249 64.6892C306.548 66.8411 313.076 68.2502 319.702 68.8879C331.618 70.3982 341.933 71.7726 349.002 87.0115C352.626 94.8349 353.351 104.607 354.061 114.076C354.409 118.728 354.726 123.138 355.375 127.201C359.664 153.978 367.216 175.531 379.162 194.998C385.204 204.876 394.13 214.481 403.569 224.646C420.333 242.664 437.657 261.301 439.711 282.959C440.783 294.195 447.262 303.982 453.56 313.436C462.063 326.214 470.853 339.444 465.642 356.027C457.366 382.397 427.749 402.711 403.962 419.037C399.204 422.299 394.703 425.38 390.565 428.371C387.152 430.832 383.316 433.868 379.268 437.085C361.145 451.448 336.3 471.127 315.11 465.464C307.136 463.319 300.249 456.402 293.589 449.696C290.779 446.745 287.804 443.957 284.678 441.344C271.387 430.908 260.06 422.843 245.304 422.012C229.567 421.121 213.361 431.648 196.204 442.809C179.047 453.97 161.361 465.464 142.029 467.231C140.157 467.442 138.344 467.533 136.577 467.533ZM76.0593 285.858C78.946 285.757 81.8179 286.314 84.4566 287.489C106.99 298.515 101.327 341.619 96.7656 376.265C94.9986 389.767 93.4581 401.442 93.8507 409.25C94.9986 432.101 100.904 448.307 111.416 457.429C119.103 464.104 129.358 466.899 141.894 465.766C160.848 464.044 178.398 452.626 195.373 441.601C212.742 430.304 229.174 419.611 245.395 420.562C260.588 421.423 272.112 429.624 285.599 440.196C288.786 442.837 291.812 445.666 294.661 448.669C301.185 455.224 307.921 462.005 315.503 464.029C335.953 469.511 360.45 450.104 378.332 435.937C382.394 432.705 386.231 429.669 389.674 427.177C393.843 424.157 398.343 421.136 403.101 417.814C426.707 401.608 456.037 381.491 464.208 355.619C469.192 339.716 460.991 327.377 452.306 314.312C445.918 304.707 439.318 294.769 438.215 283.155C436.207 262.011 419.05 243.555 402.466 225.763C392.967 215.539 383.995 205.888 377.864 195.874C365.781 176.24 358.23 154.507 353.895 127.533C353.23 123.38 352.898 118.954 352.551 114.273C351.856 104.954 351.146 95.3031 347.627 87.7365C340.906 73.2376 331.467 72.0142 319.505 70.4586C312.771 69.8096 306.136 68.3752 299.735 66.1844C285.81 61.0494 272.278 52.9089 259.184 45.0402C238.674 32.7161 219.312 21.0565 198.303 19.6822C172.16 17.9453 158.341 59.237 149.188 86.5434C147.406 91.8294 145.745 96.8285 144.204 100.831C133.421 128.847 120.538 157.664 99.4389 178.476C90.5583 187.25 79.6841 192.521 69.2328 197.611C58.7814 202.701 47.9375 207.927 39.3891 216.596C20.5556 235.656 13.714 266.436 16.7346 287.067C16.8308 288.372 17.2154 289.639 17.8604 290.778C18.5055 291.917 19.395 292.898 20.465 293.651C26.5062 297.563 38.9813 294.135 51.094 290.797C59.748 288.335 68.7646 285.858 76.0593 285.858Z" fill="#9077FF"/>
<path d="M325.23 457.489C320.95 457.495 316.719 456.572 312.83 454.786C302.832 450.255 294.525 442.824 286.49 435.635C275.465 425.788 265.059 416.484 251.617 415.744C237.919 415.004 218.511 424.278 197.956 434.11C168.158 448.427 137.363 463.092 116.762 451.644C104.936 445.059 97.9589 430.621 95.4215 407.483C94.6362 400.294 95.6481 389.359 96.7959 376.794C99.7108 345.002 103.336 305.417 81.5418 296.325C75.0475 293.621 64.717 296.249 54.7188 298.817C43.5275 301.686 32.9553 304.39 26.8386 300.251C25.4655 299.236 24.3309 297.932 23.5143 296.432C22.6978 294.932 22.2189 293.272 22.1113 291.567C19.0907 268.913 28.3187 241.923 44.6149 225.99C53.6767 217.139 64.8832 212.231 75.7272 207.488C86.5712 202.746 97.7021 197.868 106.673 189.078C129.071 167.118 139.613 135.115 148.962 106.887C149.959 103.866 151.076 100.151 152.239 96.2243C160.017 70.1867 173.036 26.6144 200.116 28.3965C218.662 29.635 235.986 38.7874 254.321 48.4987C268.502 56.0502 283.183 63.7679 298.437 67.4681C303.773 68.6222 309.213 69.2294 314.672 69.2805C326.272 69.7487 336.315 70.1565 342.976 84.6856C350.014 100.076 353.291 116.659 356.463 132.698C360.118 151.23 363.893 170.456 373.499 188.141C379.253 198.714 388.119 209.558 397.513 220.96C413.824 240.776 430.739 261.27 432.476 283.019C433.382 293.923 438.789 303.483 444.015 312.726C450.706 324.537 457.608 336.74 454.98 351.707C450.585 376.779 418.868 398.95 395.7 415.14C391.29 418.236 387.122 421.182 383.542 423.809C379.963 426.437 376.504 429.307 372.683 432.433C358.713 443.896 342.085 457.489 325.23 457.489ZM250.031 414.174C250.605 414.174 251.149 414.174 251.708 414.174C265.663 414.929 276.265 424.414 287.487 434.442C295.446 441.54 303.662 448.896 313.449 453.336C333.521 462.398 353.789 445.86 371.656 431.225C375.492 428.084 379.117 425.184 382.576 422.541C386.034 419.898 390.354 416.953 394.779 413.856C417.721 397.817 449.15 375.857 453.439 351.39C455.977 336.967 449.497 325.534 442.641 313.421C437.339 304.042 431.842 294.331 430.921 283.094C429.169 261.859 412.45 241.516 396.289 221.882C386.85 210.434 377.939 199.605 372.124 188.836C362.413 170.879 358.607 151.607 354.922 132.955C351.781 117.006 348.534 100.514 341.556 85.2897C335.213 71.6214 326.151 71.259 314.537 70.8512C308.986 70.7825 303.456 70.1602 298.029 68.9935C282.579 65.2479 267.823 57.4397 253.55 49.8882C235.427 40.2675 218.179 31.1755 199.95 29.9672C174.063 28.2908 161.271 71.123 153.629 96.7227C152.451 100.65 151.348 104.365 150.336 107.431C140.987 135.825 130.385 167.994 107.731 190.226C98.563 199.197 87.2659 204.151 76.3313 208.923C65.3967 213.696 54.5225 218.483 45.6721 227.138C29.6931 242.694 20.6161 269.139 23.6065 291.356C24.0898 294.965 25.4189 297.472 27.6844 298.983C33.2423 302.743 43.9655 299.995 54.3563 297.336C64.7472 294.678 75.1532 292.005 82.1309 294.92C104.936 304.45 101.266 344.624 98.3062 376.914C97.1584 389.45 96.1616 400.264 96.9318 407.302C99.3936 429.956 106.13 443.987 117.502 450.315C137.378 461.386 167.856 446.811 197.307 432.705C217.228 423.19 236.091 414.174 250.031 414.174Z" fill="#9077FF"/>
<path d="M325.818 449.666C322.633 449.677 319.48 449.023 316.56 447.748C310.625 445.15 305.203 438.837 299.947 432.735C297.239 429.374 294.264 426.238 291.051 423.356C280.751 415.004 269.907 410.277 259.667 409.658C246.663 408.872 227.165 417.753 206.535 427.147C176.147 440.997 141.697 456.689 119.541 444.848C108.138 438.807 101.025 426.241 97.8229 406.607C96.675 399.539 97.2036 389.163 97.8229 377.156C99.3332 349.487 101.04 315.067 81.6324 306.323C75.999 303.786 67.1939 305.417 58.6758 307.002C48.6322 308.875 39.1475 310.627 33.5443 306.413C30.9164 304.45 29.4363 301.399 29.0134 297.095C26.763 274.44 36.1722 250.139 52.9819 235.172C62.0437 227.153 72.8726 222.833 83.3541 218.65C94.4096 214.24 105.812 209.694 114.904 200.813C135.641 180.545 143.887 151.849 151.846 124.105C152.466 121.93 153.1 119.77 153.719 117.625C154.505 114.907 155.381 111.584 156.302 108.141C163.279 81.8462 174.909 37.8359 202.125 39.4671C218.149 40.4186 233.584 47.1696 249.926 54.3134C263.171 60.0978 276.869 66.0937 290.84 68.6613C296.691 69.5592 302.629 69.7519 308.525 69.2352C319.702 68.6462 329.368 68.1326 337.221 81.6348C346.041 96.8737 350.044 115.541 353.925 133.574C357.369 149.644 360.918 166.257 367.865 180.59C373.514 192.28 382.213 204.166 391.411 216.762C407.058 238.163 423.248 260.289 425.136 282.989C425.967 292.942 430.135 302.169 434.198 311.095C440.315 324.688 446.643 338.613 440.904 354.894C432.763 378.032 406.68 397.077 385.717 412.392C382.198 414.959 378.891 417.376 375.81 419.701C372.985 421.846 369.889 424.444 366.612 427.253C354.484 437.448 339.97 449.666 325.818 449.666ZM258.051 408.102C258.645 408.102 259.219 408.102 259.773 408.102C270.345 408.737 281.461 413.585 292.018 422.133C295.294 425.073 298.325 428.275 301.08 431.708C306.215 437.75 311.516 443.791 317.149 446.313C333.189 453.336 351.146 438.218 365.57 426.06C368.862 423.281 371.973 420.653 374.843 418.508C377.713 416.364 381.247 413.751 384.766 411.183C405.563 396.005 431.434 377.111 439.424 354.411C444.951 338.689 439.031 325.594 432.763 311.73C428.67 302.668 424.441 293.334 423.596 283.109C421.738 260.848 405.683 238.888 390.173 217.653C380.93 204.996 372.185 193.05 366.476 181.254C359.453 166.74 355.904 150.052 352.415 133.891C348.564 115.964 344.592 97.4326 335.802 82.405C328.446 69.6883 319.656 70.1565 308.525 70.7455C302.512 71.2732 296.457 71.0703 290.492 70.1413C276.341 67.5436 262.567 61.5175 249.246 55.7028C233.025 48.6044 217.711 41.9138 201.958 40.9774C176.011 39.4671 164.533 82.692 157.691 108.533C156.755 112.022 155.894 115.315 155.094 118.048C154.474 120.193 153.855 122.353 153.221 124.527C145.201 152.453 136.91 181.345 115.886 201.885C106.583 210.947 95.0288 215.599 83.8374 220.009C73.4767 224.132 62.6932 228.406 53.9183 236.26C37.456 250.88 28.2431 274.682 30.433 296.868C30.8257 300.735 32.1095 303.438 34.3749 305.13C39.4496 308.951 49.0551 307.169 58.3284 305.447C67.073 303.816 76.1198 302.139 82.1761 304.873C102.535 314.04 100.708 349.034 99.2576 377.156C98.6384 389.072 98.0947 399.373 99.2576 406.29C102.384 425.425 109.226 437.583 120.19 443.443C141.697 454.937 175.785 439.396 205.855 425.697C225.851 416.711 244.73 408.102 258.051 408.102Z" fill="#9077FF"/>
<path d="M141.894 443.171C134.683 443.362 127.532 441.808 121.051 438.641C110.479 433.113 103.29 422.239 99.9071 406.32C98.3968 399.539 98.5025 389.329 98.5478 378.515C98.6535 355.438 98.7744 326.712 84.0942 317.71C79.0498 314.614 70.8941 315.339 62.9499 316.019C54.2506 316.789 45.2492 317.529 40.1292 313.21C37.5919 310.99 36.1722 307.969 35.9155 303.589C35.2175 292.041 37.3577 280.497 42.1492 269.966C46.9407 259.435 54.2378 250.238 63.403 243.177C72.0118 236.547 82.01 232.831 91.6759 229.237C102.686 225.144 114.059 220.915 123.09 212.397C136.321 199.907 144.235 170.274 152.677 138.905C164.382 95.1972 176.525 50.0542 204.601 51.3077C218.194 51.8968 231.621 56.5183 245.893 61.4117C259.229 65.9426 273.079 70.7152 286.807 71.8026C292.469 72.1406 298.151 71.8163 303.738 70.836C313.947 69.3257 322.013 68.2081 331.633 79.5353C337.931 86.9358 340.695 101.329 342.885 112.883C343.776 117.58 344.622 122.02 345.588 125.403C351.52 146.729 359.417 167.459 369.179 187.326C374.103 197.249 380.582 207.488 387.439 218.347C400.881 239.643 414.791 261.663 417.841 283.004C418.808 289.845 421.375 297.276 424.079 305.145C428.882 319.07 433.851 333.493 430.754 346.829C424.819 372.504 398.268 392.622 376.942 408.827C373.922 411.138 370.901 413.358 368.228 415.503C365.555 417.647 362.534 420.245 359.498 422.948C347.416 433.672 333.672 445.83 318.72 439.894L318.539 439.819L318.418 439.683C312.377 432.705 306.336 425.748 300.294 418.81C291.595 409.144 279.92 403.526 269.137 403.828C256.798 404.145 237.994 412.104 218.073 420.532C192.625 431.3 164.548 443.171 141.894 443.171ZM73.0237 313.904C77.5546 313.904 81.6626 314.478 84.8191 316.412C100.239 325.851 100.103 355.045 99.9977 378.5C99.9977 389.238 99.9071 399.373 101.327 405.988C104.695 421.665 111.355 431.905 121.716 437.281C145.443 449.62 183.744 433.415 217.545 419.158C237.602 410.67 256.541 402.665 269.152 402.333V403.088V402.333C280.419 402.046 292.486 407.83 301.487 417.813C307.529 424.731 313.525 431.648 319.475 438.565C333.476 444.002 346.766 432.222 358.501 421.831C361.522 419.112 364.452 416.545 367.291 414.279C370.131 412.014 372.97 409.899 375.991 407.649C397.135 391.61 423.445 371.628 429.259 346.527C432.28 333.599 427.356 319.342 422.629 305.658C419.895 297.729 417.313 290.238 416.316 283.245C413.295 262.237 399.491 240.353 386.11 219.178C379.238 208.304 372.744 198.034 367.775 188.021C357.967 168.062 350.034 147.237 344.078 125.811C343.096 122.368 342.251 117.897 341.344 113.17C339.185 101.782 336.481 87.6155 330.44 80.517C321.378 69.8241 314.038 70.8813 303.904 72.3312C298.207 73.3268 292.414 73.6562 286.641 73.3129C272.656 72.2104 258.776 67.4529 245.349 62.8465C231.198 57.9833 217.817 53.392 204.496 52.8181H203.469C177.28 52.8181 165.5 96.8283 154.082 139.404C145.624 170.984 137.619 200.828 124.087 213.59C114.829 222.335 103.305 226.609 92.1592 230.747C82.599 234.311 72.7065 237.981 64.279 244.476C55.3386 251.373 48.2186 260.35 43.5386 270.626C38.8585 280.902 36.7601 292.166 37.4258 303.438C37.6976 307.35 38.9361 310.144 41.0958 312.017C45.7325 315.974 54.4167 315.218 62.814 314.478C66.2424 314.206 69.7312 313.904 73.0237 313.904Z" fill="#9077FF"/>
<path d="M147.104 436.133C139.588 436.302 132.122 434.866 125.205 431.92C114.723 427.192 107.081 418.251 102.384 405.338C99.7259 397.983 99.3634 387.577 98.8348 376.552C98.0494 357.764 97.1735 336.453 84.2452 328.222C79.8352 325.398 73.0841 325.443 66.5747 325.473C55.1719 325.549 43.3915 325.609 42.7421 310.808C40.975 269.879 66.2273 258.129 92.9597 245.593C106.235 239.386 119.979 232.967 130.717 222.652C143.948 209.89 150.835 180.681 158.129 149.749C168.173 107.129 178.609 63.0278 207.35 63.4658C218.738 63.6319 230.216 66.3958 242.389 69.3106C256.526 72.7088 271.085 76.2278 285.448 75.2159C290.294 74.775 295.078 73.8181 299.72 72.3615C309.19 69.7033 316.681 67.604 326.257 78.7803C332.298 85.8183 335.016 96.768 337.418 106.434C338.233 109.741 339.019 112.868 339.879 115.737C347.899 142.077 355.149 161.923 363.365 180.091C368.198 190.769 374.45 201.644 381.065 213.152C394.19 236.003 407.753 259.609 410.547 282.989C411.525 289.825 412.927 296.594 414.745 303.257C418.612 318.843 422.629 334.973 417.192 350.197C409.444 371.915 388.874 388.408 370.72 402.967C367.322 405.686 364.105 408.253 361.024 410.836C358.909 412.588 356.493 414.914 354.016 417.375C344.848 426.332 333.446 437.493 322.919 432.992H322.722L322.586 432.796C318.056 426.181 313.434 419.565 308.692 413.162C301.049 403.405 290.462 397.953 279.648 398.225C266.705 398.572 247.298 406.229 226.788 414.34C200.282 424.64 171.148 436.133 147.104 436.133ZM68.825 323.918C74.8663 323.918 80.8018 324.19 85.0457 326.938C98.6385 335.638 99.5446 357.356 100.345 376.522C100.798 387.426 101.221 397.666 103.804 404.855C108.335 417.542 115.584 425.999 125.824 430.53C151.65 442.19 191.25 426.573 226.199 412.784C246.86 404.613 266.388 396.911 279.603 396.563C290.915 396.261 301.956 401.94 309.809 412.105C314.536 418.523 319.188 425.108 323.644 431.738C333.204 435.59 344.108 424.927 352.883 416.333C355.421 413.856 357.822 411.515 359.982 409.718C363.078 407.136 366.295 404.553 369.693 401.834C387.696 387.396 408.085 371.054 415.697 349.729C420.968 334.928 417.026 319.04 413.205 303.665C411.379 296.941 409.967 290.111 408.976 283.215C406.212 260.153 392.725 236.668 379.676 213.953C373.046 202.414 366.778 191.509 361.915 180.726C353.669 162.496 346.404 142.591 338.369 116.191C337.478 113.276 336.693 110.149 335.877 106.812C333.506 97.3117 330.833 86.5432 325.033 79.7771C316.092 69.3257 309.356 71.2287 300.053 73.8416C295.301 75.3238 290.405 76.2959 285.448 76.7413C270.904 77.7532 256.178 74.2191 241.921 70.7907C229.839 67.891 218.436 65.1573 207.184 64.9912H206.806C179.515 64.9912 169.321 108.261 159.458 150.112C152.118 181.27 145.186 210.69 131.624 223.754C120.749 234.236 106.885 240.715 93.4883 246.983C67.2241 259.247 42.4249 270.846 44.1467 310.703C44.7206 324.069 55.2927 324.008 66.469 323.933L68.825 323.918Z" fill="#9077FF"/>
<path d="M151.559 429.126C131.774 429.126 115.025 422.556 105.314 403.768C101.553 396.488 100.511 386.867 99.4238 376.673C97.7926 361.57 96.1162 345.893 84.8644 338.447C80.9074 335.819 75.3344 335.2 69.9577 334.611C59.9595 333.508 49.6441 332.376 49.5535 318.36C49.3118 280.466 74.3376 268.218 100.904 255.259C114.028 248.841 127.606 242.195 137.952 232.137C150.699 219.722 156.71 191.358 163.083 161.303C171.949 119.453 181.207 76.1674 210.265 75.9862C219.368 76.1578 228.449 76.9297 237.451 78.2969C251.3 80.064 265.618 81.8915 279.18 79.5807C284.022 78.6644 288.769 77.3044 293.362 75.518C302.665 72.1802 309.975 69.4768 321.106 78.1308C328.461 83.8398 331.678 96.9341 334.412 107.446C335.364 111.252 336.27 114.861 337.267 117.701L339.547 124.301C345.105 140.37 350.859 156.999 357.565 172.963C362.232 184.079 368.137 195.361 374.465 207.307C387.499 232.061 400.971 257.661 403.342 283.004C403.886 288.803 404.853 294.754 405.804 300.508C408.674 318.164 411.649 336.408 403.222 353.852C394.537 371.794 376.701 387.079 360.933 400.52C358.471 402.635 356.055 404.689 353.759 406.698C353.623 406.818 353.215 407.256 352.581 407.906C338.988 422.329 330.697 428.038 326.694 425.924L326.468 425.788L326.362 425.546C323.7 419.29 320.648 413.207 317.225 407.332C311.033 397.606 301.367 392.229 290.779 392.486C277.413 392.863 257.326 400.158 236.061 407.876C208.649 417.813 177.491 429.126 151.559 429.126ZM210.794 77.4965H210.19C182.279 77.6626 173.232 120.344 164.488 161.62C158.069 191.827 152.013 220.522 138.918 233.209C128.346 243.449 114.753 250.139 101.493 256.619C75.4401 269.366 50.8221 281.403 51.0638 318.345C51.0638 331.031 59.9293 331.938 70.1087 333.116C75.6818 333.72 81.436 334.354 85.6951 337.178C97.5359 345.017 99.2878 361.026 100.919 376.446C102.006 386.505 103.018 395.99 106.658 403.012C116.037 421.136 132.333 427.525 151.65 427.525C177.325 427.525 208.287 416.273 235.487 406.38C256.858 398.617 277.066 391.277 290.689 390.9C301.82 390.613 311.954 396.261 318.463 406.471C321.851 412.321 324.878 418.374 327.525 424.595C329.896 425.516 335.998 423.084 351.388 406.773C352.068 406.063 352.505 405.595 352.657 405.474C354.967 403.45 357.369 401.396 359.846 399.282C375.477 385.916 393.178 370.767 401.726 353.112C409.958 336.091 407.012 318.073 404.173 300.659C403.237 294.875 402.255 288.894 401.711 283.064C399.37 258.008 385.959 232.544 373.015 207.926C366.702 195.95 360.752 184.638 356.055 173.461C349.319 157.452 343.565 140.808 338.007 124.709L335.711 118.093C334.714 115.194 333.793 111.569 332.826 107.733C330.229 97.4325 326.996 84.61 320.064 79.2333C309.628 71.1532 302.968 73.5395 293.755 76.847C289.079 78.6633 284.246 80.0436 279.316 80.9702C265.512 83.3263 251.089 81.4837 237.148 79.7015C228.419 78.4138 219.616 77.6773 210.794 77.4965Z" fill="#9077FF"/>
<path d="M156.997 422.178C137.665 422.178 120.749 416.62 108.984 401.185C103.728 394.313 101.87 385.463 100.058 376.914C97.6869 365.587 95.4215 354.894 86.0727 348.219C82.4329 345.606 77.8264 344.564 73.3559 343.537C64.868 341.558 56.0327 339.565 56.3348 326.093C57.1504 290.978 83.3541 277.129 108.697 263.732C121.429 257.011 134.584 250.064 144.521 240.489C156.951 228.512 162.207 201.221 167.78 172.177C175.588 131.535 183.669 89.5185 213.089 88.5821C218.995 88.3857 224.975 88.5821 231.319 88.7029C245.5 89.0503 260.181 89.4128 273.607 85.6823C278.215 84.2919 282.681 82.4663 286.943 80.2301C296.443 75.6086 304.659 71.6063 315.82 80.4264C330.727 92.2068 339.819 123.893 347.144 149.357C350.27 160.246 353.185 170.501 356.206 177.645C359.982 186.782 364.528 196.146 369.361 206.069C381.579 231.245 394.235 257.283 395.957 282.958C396.123 285.511 396.304 288.003 396.486 290.434C398.585 319.825 400.125 341.075 381.383 366.977C371.49 380.569 358.366 392.652 345.694 404.281C340.65 408.888 335.454 413.66 330.591 418.372L329.413 419.52L329.307 417.874C328.341 402.303 319.792 386.822 302.907 386.822H302.016C287.049 387.29 265.965 394.373 243.643 401.925C214.736 411.697 183.533 422.178 156.997 422.178ZM219.07 90.0471C217.092 90.0471 215.143 90.0471 213.195 90.1377C184.952 91.0288 176.948 132.426 169.29 172.495C163.672 201.719 158.371 229.312 145.594 241.621C135.505 251.333 122.26 258.34 109.437 265.122C83.3239 278.911 58.6607 291.945 57.8753 326.168C57.6035 338.356 65.0643 340.063 73.6882 342.026C78.3097 343.068 83.0672 344.156 86.9487 346.95C96.7808 354.018 99.1972 365.496 101.538 376.597C103.305 384.995 105.133 393.664 110.177 400.264C137.514 436.058 193.682 417.179 243.235 400.536C265.678 392.984 286.868 385.886 302.046 385.432C315.065 384.979 328.794 394.494 330.742 416.273C335.273 411.908 340.03 407.528 344.667 403.269C357.293 391.685 370.342 379.724 380.159 366.191C398.6 340.727 397.09 319.734 395.006 290.676C394.824 288.229 394.643 285.737 394.477 283.124C392.77 257.751 380.189 231.774 368.032 206.809C363.199 196.856 358.637 187.477 354.831 178.294C351.811 171.105 348.896 160.775 345.77 149.84C338.505 124.603 329.473 93.1734 314.959 81.6951C304.538 73.4488 297.108 77.0736 287.683 81.6951C283.336 83.9682 278.785 85.829 274.091 87.253C260.498 91.0137 245.651 90.6361 231.349 90.2736C227.09 90.1528 223.027 90.0471 219.04 90.0471H219.07Z" fill="#9077FF"/>
<path d="M163.37 414.536C144.28 414.536 127.017 409.869 113.53 397.077C107.851 391.67 104.755 384.647 101.765 377.851C98.2608 369.907 94.9533 362.4 87.87 357.129C84.6201 354.921 81.056 353.216 77.2978 352.07C69.7463 349.382 62.5421 346.829 63.1312 333.826C64.6415 301.429 90.075 286.447 114.753 271.903C127.47 264.442 140.61 256.709 150.155 246.726C161.09 235.263 166.043 210.026 171.299 183.293C179.092 143.633 187.157 102.628 216.019 101.133H216.291C234.732 100.166 255.65 99.0788 273.169 91.3158C276.75 89.6572 280.207 87.7443 283.515 85.5918C292.169 80.2453 299.011 76.0316 310.7 83.5982C326.649 93.9136 335.364 124.12 342.417 148.39C344.999 157.331 347.446 165.774 349.893 171.921C353.487 180.983 357.716 190.241 362.202 200.073C374.677 227.394 387.575 255.667 388.692 282.989L388.844 286.342C389.991 313.693 390.988 337.314 374.224 361.645C368.953 369.318 362.141 375.993 355.602 382.457C347.038 390.915 338.173 399.645 332.947 410.413L331.573 409.764C333.128 406.59 333.835 403.068 333.626 399.54C333.417 396.013 332.299 392.599 330.38 389.631C328.513 386.854 325.946 384.618 322.939 383.149C319.932 381.68 316.591 381.03 313.253 381.264C296.247 381.883 274.136 388.71 250.726 395.944C221.94 404.916 190.767 414.536 163.37 414.536ZM298.875 81.076C293.83 81.076 289.511 83.7341 284.33 86.936C280.945 89.1154 277.412 91.0583 273.758 92.7506C255.997 100.634 234.928 101.737 216.367 102.704H216.095C188.411 104.214 180.467 144.554 172.779 183.641C167.478 210.585 162.479 236.033 151.242 247.814C141.576 257.978 128.301 265.681 115.524 273.232C91.2077 287.52 66.0611 302.29 64.6566 333.871C64.1129 345.742 70.1692 347.902 77.8113 350.62C81.7236 351.806 85.4315 353.584 88.8063 355.891C96.2068 361.404 99.7409 369.484 103.169 377.201C106.19 383.862 109.211 390.794 114.602 395.944C146.727 426.528 201.747 409.537 250.303 394.54C273.804 387.275 296.005 380.418 313.223 379.784C316.82 379.555 320.414 380.27 323.649 381.86C326.884 383.45 329.647 385.858 331.663 388.846C334.573 393.262 335.741 398.601 334.941 403.828C340.257 395.491 347.491 388.363 354.575 381.43C361.039 375.027 367.775 368.381 372.97 360.83C389.448 336.891 388.451 313.512 387.318 286.432L387.167 283.079C386.065 256.075 373.227 227.923 360.888 200.737C356.357 190.89 352.158 181.602 348.549 172.525C346.072 166.302 343.625 157.83 340.997 148.843C334.065 124.83 325.426 94.9255 309.96 84.9121C306.721 82.5743 302.866 81.2403 298.875 81.076Z" fill="#9077FF"/>
<path d="M171.088 405.233C153.1 405.233 135.807 401.759 119.737 392.41C113.152 388.559 108.38 383.122 103.758 377.851C99.8809 373.047 95.4158 368.75 90.4677 365.059C88.0077 363.435 85.4335 361.991 82.7651 360.739C75.3797 357.069 69.0063 353.897 69.8822 341.181C71.9363 311.881 96.2522 295.434 119.722 279.545C132.409 270.967 145.533 262.101 154.459 251.438C163.385 240.776 168.611 218.076 173.957 194.183C182.566 155.655 191.477 115.828 218.647 113.548C237.753 111.947 254.441 107.31 268.246 99.7736C271.751 97.7932 275.121 95.5833 278.335 93.1585C287.17 86.7699 293.543 82.1635 306.003 90.7571C323.447 102.84 333.053 133.438 340.74 158.071C343.202 165.955 345.528 173.386 347.824 179.216C350.844 186.767 354.091 194.319 357.595 202.338C369.134 228.799 381.081 256.166 381.201 283.094C381.307 309.721 380.265 331.998 366.098 355.816C363.621 359.984 358.622 365.119 353.321 370.556C348.83 375.011 344.565 379.688 340.544 384.572L340.635 384.829C342.689 391.504 339.879 398.421 333.461 402.454L332.554 403.013L332.313 402.001C331.029 396.639 334.095 390.522 338.852 384.315C337.04 379.784 332.237 375.344 323.749 375.676C302.484 376.477 279.15 382.895 254.457 389.692C226.682 397.379 198.107 405.233 171.088 405.233ZM293.815 87.5855C288.771 87.5855 284.617 90.6061 279.377 94.3818C276.104 96.8366 272.679 99.0814 269.122 101.103C255.121 108.745 238.236 113.442 218.934 115.058C192.866 117.233 184.076 156.516 175.588 194.515C170.197 218.589 165.107 241.335 155.773 252.42C146.711 263.234 133.451 272.16 120.674 280.799C97.4604 296.491 73.4617 312.727 71.4681 341.286C70.6525 352.991 75.999 355.68 83.5505 359.41C86.2834 360.69 88.9184 362.169 91.4343 363.835C96.5001 367.591 101.068 371.976 105.027 376.884C109.558 382.05 114.24 387.456 120.628 391.127C160.078 414.159 207.985 400.989 254.321 388.227C279.105 381.415 302.53 374.966 323.976 374.166C332.751 373.834 337.931 378.213 340.166 382.971C343.821 378.44 348.277 373.909 352.506 369.499C357.731 364.137 362.67 359.063 365.056 355.045C379.042 331.5 380.038 310.371 379.933 283.094C379.812 256.483 367.941 229.267 356.447 202.943C352.944 194.908 349.621 187.311 346.661 179.774C344.35 173.899 342.009 166.438 339.532 158.54C331.89 134.133 322.36 103.746 305.339 92.0107C300.732 88.8541 297.092 87.5855 293.815 87.5855ZM339.623 386.052C335.802 391.202 333.31 396.186 333.808 400.536C336.132 398.996 337.932 396.786 338.971 394.199C340.009 391.612 340.237 388.771 339.623 386.052Z" fill="#9077FF"/>
<path d="M172.538 394.177C157.366 394.276 142.257 392.242 127.651 388.136C116.384 384.875 105.583 380.18 95.5121 374.166C82.0704 365.768 75.7875 356.933 76.8297 347.871C80.0768 319.583 102.399 302.834 123.981 286.613C136.456 277.25 149.37 267.553 158.386 255.758C166.104 245.684 171.239 225.446 176.676 204.015C185.738 168.372 195.947 127.971 221.351 125.479C236.892 123.969 252.267 117.761 268.382 106.645C271.266 104.652 273.728 102.628 275.933 100.846C284.013 94.1855 289.36 89.7754 302.107 98.8523C318.539 110.542 327.963 137.833 335.545 159.763C337.493 165.411 339.336 170.743 341.118 175.274C343.731 181.919 346.6 188.685 349.636 195.859C361.326 223.483 374.571 254.761 374.133 283.094C373.801 303.891 372.442 327.89 360.465 349.548C357.586 354.149 354.344 358.513 350.769 362.597C348.518 365.346 346.238 368.185 344.003 371.07C345.161 371.916 346.115 373.01 346.797 374.271C347.719 376.477 348.056 378.883 347.775 381.257C347.495 383.631 346.606 385.892 345.194 387.821C343.783 389.751 341.897 391.283 339.72 392.27C337.542 393.256 335.147 393.663 332.766 393.452L332.086 393.362V392.697C332.252 385.916 336.527 378.576 341.798 371.462C339.313 370.284 336.567 369.763 333.823 369.952C308.012 370.541 281.748 376.371 256.36 382.034C228.963 388.015 200.946 394.177 172.538 394.177ZM289.601 95.2125C285.07 95.2125 281.627 98.082 276.87 102.009C274.664 103.806 272.172 105.86 269.242 107.884C252.916 119.166 237.3 125.403 221.502 126.989C197.156 129.421 187.052 169.278 178.126 204.423C172.659 226.005 167.554 246.394 159.579 256.724C150.442 268.686 137.453 278.443 124.842 287.867C103.562 303.891 81.4814 320.459 78.3249 348.098C76.1802 366.795 109.92 381.551 128.074 386.731C171.541 399.146 214.479 389.631 256.027 380.434C281.476 374.785 307.816 368.955 333.778 368.351C336.858 368.174 339.931 368.809 342.689 370.194C344.924 367.249 347.22 364.364 349.561 361.585C353.072 357.563 356.269 353.276 359.121 348.762C370.931 327.467 372.26 303.68 372.593 283.064C373.031 255.078 359.846 223.936 348.216 196.448C345.196 189.274 342.296 182.478 339.683 175.833C337.886 171.302 336.043 165.925 334.08 160.261C326.528 138.528 317.24 111.494 301.201 100.076C296.337 96.6171 292.728 95.2125 289.601 95.2125ZM333.612 391.972C335.671 392.092 337.726 391.665 339.567 390.734C341.408 389.803 342.969 388.401 344.093 386.671C345.357 385.019 346.149 383.056 346.386 380.989C346.622 378.923 346.295 376.831 345.437 374.936C344.857 373.862 344.048 372.928 343.066 372.202C338.097 378.953 334.035 385.75 333.612 391.972Z" fill="#9077FF"/>
<path d="M154.263 385.176C124.752 385.176 100.481 381.475 89.6672 371.039C87.3519 368.869 85.6021 366.166 84.5702 363.165C83.5384 360.164 83.2557 356.957 83.7468 353.822C87.0091 327.331 108.078 309.525 128.452 292.307C140.534 282.082 153.07 271.51 161.528 259.292C167.946 250.019 173.036 232.288 178.413 213.514C188.335 178.777 199.557 139.51 223.586 136.821C236.756 135.311 249.805 129.119 264.666 117.293C267.294 115.209 269.529 113.17 271.508 111.373C280.071 103.594 284.799 99.2901 298.769 109.56C315.911 122.111 325.758 149.523 333.672 171.558C335.394 176.361 337.025 180.907 338.626 184.955C339.97 188.398 341.344 191.857 342.734 195.361C354.424 224.736 366.491 255.108 366.808 283.064C367.035 303.181 362.942 321.954 353.925 342.192C351.337 347.642 348.375 352.905 345.06 357.945C344.123 359.455 343.202 360.966 342.311 362.355H342.387C349.938 362.476 352.672 365.225 353.563 367.49C354.862 370.828 353.14 375.419 349.168 379.21C345.196 383.001 338.46 386.308 332.147 383.514L331.588 383.258L331.724 382.654C333.324 376.05 335.975 369.747 339.577 363.986C333.295 364.485 320.895 366.448 304.674 369C264.228 375.389 202.306 385.176 154.263 385.176ZM285.176 105.029C280.751 105.029 277.398 108.05 272.52 112.49C270.526 114.303 268.261 116.357 265.618 118.531C250.515 130.614 237.209 136.867 223.752 138.392C200.765 140.99 189.665 179.774 179.863 213.907C174.456 232.816 169.291 250.668 162.766 260.153C154.187 272.522 141.622 283.155 129.418 293.379C109.271 310.401 88.4288 328.011 85.242 353.928C84.7784 356.833 85.0344 359.807 85.9876 362.59C86.9408 365.374 88.5621 367.88 90.7093 369.891C118.574 396.82 239.489 377.715 304.448 367.445C321.59 364.741 334.488 362.702 340.514 362.355C341.586 360.573 342.689 358.821 343.776 357.084C347.057 352.105 349.984 346.902 352.536 341.513C361.462 321.486 365.524 302.909 365.298 283.034C364.981 255.35 352.959 225.114 341.329 195.859L337.206 185.453C335.62 181.375 333.989 176.829 332.252 172.011C324.414 150.172 314.642 122.987 297.878 110.708C292.335 106.721 288.393 105.029 285.176 105.029ZM333.34 382.367C338.792 384.421 344.667 381.415 348.126 378.123C351.584 374.83 353.23 370.798 352.143 368.049C351.056 365.3 347.733 363.956 342.356 363.865H341.39C337.744 369.567 335.026 375.812 333.34 382.367Z" fill="#9077FF"/>
<path d="M118.499 380.917C109.06 380.917 100.013 379.497 94.8627 374.211C91.2833 370.541 89.8938 365.3 90.7244 358.625C93.7451 333.599 113.772 314.252 133.013 295.539C144.31 284.59 155.985 273.262 163.687 261.165C169.2 252.526 173.912 237.408 178.896 221.414C189.242 188.187 200.977 150.641 225.338 147.409C237.118 145.898 246.558 138.03 255.695 130.463C268.276 120.057 280.147 110.24 295.597 120.284C311.486 130.614 321.846 158.419 329.398 178.732C330.787 182.478 332.116 186.012 333.325 189.033C344.35 216.656 358.064 251.031 359.468 283.049C360.042 296.159 357.369 311.624 351.524 329.023C347.295 337.772 343.066 346.472 338.837 355.121C342.383 355.178 345.918 355.517 349.409 356.133C351.858 356.775 354.221 357.708 356.447 358.912C357.656 359.486 358.879 360.09 360.027 360.558L360.676 360.845L360.45 361.509C357.429 370.209 347.582 377.504 340.046 376.522C337.297 376.159 332.615 374.287 332.041 365.768V365.572L332.192 365.361C333.622 362.431 335.051 359.501 336.481 356.571C320.714 356.737 301.986 360.951 282.352 365.361C267.415 368.714 251.949 372.187 237.858 373.682C211.504 376.492 184.59 377.549 158.567 378.561C154.308 378.712 150.054 378.878 145.805 379.059C143.223 379.165 140.006 379.467 136.623 379.799C131.034 380.313 124.676 380.917 118.499 380.917ZM282.745 117.58C273.683 117.58 265.618 124.256 256.707 131.641C247.403 139.328 237.798 147.273 225.58 148.904C202.185 152.015 190.601 189.123 180.391 221.867C175.362 237.966 170.635 253.16 165.016 261.98C157.208 274.214 145.458 285.617 134.1 296.627C115.01 315.158 95.2554 334.309 92.2196 358.806C91.4645 364.998 92.7029 369.831 95.935 373.154C103.955 381.385 122.728 379.588 136.426 378.274C139.84 377.941 143.072 377.639 145.7 377.534C149.943 377.353 154.203 377.201 158.462 377.035C184.454 376.023 211.322 374.966 237.662 372.172C251.663 370.662 267.068 367.218 281.974 363.881C301.941 359.35 321.046 355.106 337.1 355.106H337.206C341.546 346.225 345.87 337.339 350.18 328.449C355.934 311.322 358.577 296.038 358.003 283.14C356.614 251.423 342.9 217.139 331.965 189.622C330.742 186.601 329.428 183.037 328.024 179.291C320.548 159.174 310.293 131.641 294.797 121.582C291.263 119.088 287.069 117.695 282.745 117.58ZM333.702 365.889C334.11 371.357 336.421 374.513 340.378 375.042C346.948 375.888 355.949 369.363 358.924 361.691C357.943 361.253 356.916 360.769 355.904 360.286C353.793 359.147 351.558 358.255 349.243 357.628C345.594 356.978 341.895 356.644 338.188 356.631C336.668 359.712 335.172 362.798 333.702 365.889Z" fill="#9077FF"/>
<path d="M115.614 380.615C110.011 380.615 105.042 379.558 101.825 376.643C98.6083 373.728 96.9922 368.653 97.7927 362.038C100.708 338.19 119.647 317.001 137.967 296.491C148.539 284.559 158.673 273.308 165.605 261.754C170.136 254.202 174.426 241.727 179.002 228.527C189.574 197.928 202.759 159.853 226.697 157.105C237.677 155.851 246.331 148.043 254.864 140.491C266.524 130.07 277.519 120.223 292.546 130.07C304.886 138.15 315.971 165.517 322.602 181.874C323.553 184.23 324.399 186.314 325.124 188.036C337.463 217.23 350.799 251.076 352.234 283.185C353.049 301.022 347.355 319.432 342.432 331.771L342.326 331.938C338.529 336.965 335.725 342.67 334.065 348.747C340.875 348.167 347.733 348.502 354.454 349.744C356.735 350.432 358.918 351.411 360.948 352.659C362.051 353.263 363.199 353.882 364.241 354.396L365.086 354.789L364.513 355.529C358.139 363.896 348.413 368.638 340.846 367.098C337.403 366.388 332.932 364.077 331.15 356.963V356.843V356.722C331.346 354.609 331.674 352.511 332.132 350.439C318.539 351.526 303.255 354.683 288.227 357.779C274.196 360.664 259.712 363.654 246.633 364.998C234.173 366.297 221.456 367.324 209.163 368.306C191.416 369.741 173.066 371.221 155.124 373.531C152.103 373.909 148.041 374.921 143.283 376.084C134.75 378.047 124.344 380.6 115.614 380.615ZM280.313 127.442C271.644 127.442 264.153 134.133 255.861 141.549C247.237 149.251 238.327 157.21 226.863 158.54C203.876 161.167 190.873 198.744 180.437 228.935C175.815 242.271 171.465 254.867 166.844 262.494C159.836 274.199 149.732 285.511 139.024 297.488C120.9 317.831 102.097 338.855 99.2426 362.219C98.4874 368.26 99.6806 372.791 102.762 375.525C110.555 382.427 129.207 377.836 142.83 374.483C147.633 373.305 151.771 372.293 154.912 371.9C172.9 369.589 191.265 368.109 209.027 366.675C221.321 365.678 234.022 364.651 246.467 363.367C259.471 362.023 273.924 359.048 287.895 356.163C303.753 352.901 319.052 349.744 332.494 348.717C334.165 342.302 337.08 336.278 341.073 330.986C345.936 318.798 351.539 300.644 350.739 283.109C349.228 251.393 336.028 217.623 323.749 188.534C323.024 186.828 322.239 184.728 321.212 182.357C315.08 167.254 303.677 139.087 291.731 131.248C288.387 128.876 284.412 127.551 280.313 127.442ZM332.645 356.586C333.914 361.524 336.859 364.605 341.148 365.481C347.839 366.856 356.795 362.551 362.745 355.196C361.915 354.773 361.069 354.305 360.223 353.852C358.333 352.682 356.303 351.753 354.182 351.088C347.424 349.891 340.535 349.612 333.702 350.258C333.208 352.341 332.855 354.455 332.645 356.586Z" fill="#9077FF"/>
<path d="M118.303 378.953C114.27 378.953 110.842 378.168 108.41 376.205C105.39 373.713 104.211 369.559 104.982 363.85C108.123 340.456 125.915 317.303 143.102 294.89C152.254 282.973 160.908 271.707 167.161 260.712C171.012 253.945 174.909 243.6 179.032 232.635C189.936 203.652 203.499 167.601 227.362 165.577C239.202 164.581 247.162 157.014 254.864 149.689C264.772 140.265 274.136 131.369 289.677 140.959C322.904 161.439 344.607 250.849 344.909 283.124C344.909 289 341.526 299.33 337.886 310.31C334.397 320.761 330.591 332.224 329.685 340.516C338.844 340.446 347.991 341.179 357.021 342.706C359.203 343.282 361.308 344.118 363.289 345.198C364.361 345.712 365.434 346.24 366.446 346.708L367.609 347.207L366.642 347.992C360.208 353.233 346.268 359.637 336.753 356.767C334.8 356.217 333.023 355.17 331.596 353.727C330.169 352.284 329.141 350.495 328.613 348.536C328.042 346.391 327.853 344.162 328.054 341.951C288.786 341.951 238.659 351.934 193.35 360.95C183.125 362.989 173.459 364.907 164.125 366.675C159.979 367.724 155.899 369.02 151.907 370.556C141.38 374.226 128.104 378.953 118.303 378.953ZM277.036 138.347C269.016 138.347 262.793 144.252 255.891 150.792C248.34 157.935 239.852 166.046 227.467 167.088C204.526 169.036 191.145 204.589 180.406 233.164C176.253 244.189 172.341 254.595 168.43 261.467C162.117 272.537 153.447 283.849 144.265 295.811C127.198 318.058 109.528 341.12 106.507 364.047C105.812 369.212 106.779 372.897 109.407 375.027C117.064 381.264 137.74 373.969 151.424 369.136C155.49 367.575 159.645 366.259 163.869 365.194C173.202 363.427 182.868 361.509 193.093 359.47C238.493 350.409 288.695 340.441 328.205 340.441C329.066 332.089 332.826 320.807 336.496 309.781C340.166 298.756 343.489 288.758 343.444 283.124C343.157 252.027 321.121 162.104 288.937 142.243C285.42 139.836 281.295 138.47 277.036 138.301V138.347ZM329.579 341.966C329.382 343.992 329.54 346.036 330.047 348.007C330.513 349.727 331.416 351.296 332.668 352.564C333.919 353.832 335.478 354.754 337.191 355.242C344.984 357.598 357.218 353.157 364.709 347.509C364.014 347.207 363.319 346.859 362.625 346.527C360.763 345.516 358.792 344.721 356.75 344.156C347.775 342.623 338.684 341.876 329.579 341.921V341.966Z" fill="#9077FF"/>
<path d="M122.788 374.317C120.041 374.496 117.31 373.775 115.01 372.263C112.609 370.405 111.657 367.354 112.186 363.201C115.207 339.111 132.288 313.527 148.781 288.788C156.045 277.884 162.902 267.568 168.248 257.857C171.269 252.45 174.29 245.004 177.884 236.365C188.773 210.131 203.695 174.216 227.392 172.449C237.964 171.664 245.334 164.626 252.463 157.83C262.144 148.586 271.297 139.872 286.611 149.78C317.965 170.063 337.961 253.991 337.554 282.581C337.554 284.514 335.877 290.132 333.566 297.789C330.319 308.649 325.834 323.721 325.154 332.285C335.763 332.115 346.36 333.077 356.765 335.154C358.481 335.656 360.133 336.356 361.688 337.239C362.519 337.662 363.365 338.099 364.15 338.447L365.509 339.051L364.226 339.791C357.994 343.175 351.129 345.232 344.063 345.832C337.841 346.285 329.428 345.515 324.686 339.172C323.773 337.553 323.388 335.689 323.583 333.84C279.935 334.263 223.631 347.071 179.968 357.009L172.84 358.64C168.954 359.842 165.142 361.269 161.422 362.914C149.717 367.641 133.406 374.317 122.788 374.317ZM273.819 146.895C266.101 146.895 260.12 152.604 253.52 158.977C246.195 165.97 238.629 173.189 227.513 174.08C204.752 175.772 190.042 211.204 179.304 237.075C175.694 245.744 172.583 253.22 169.593 258.703C164.216 268.474 157.329 278.805 150.049 289.755C133.662 314.342 116.717 339.776 113.696 363.503C113.228 367.158 113.968 369.68 115.947 371.19C123.392 376.914 146.847 367.324 160.863 361.6C164.66 359.915 168.553 358.458 172.523 357.235L179.651 355.619C223.45 345.666 279.815 332.829 323.674 332.406C324.233 324.612 327.857 311.82 332.147 297.472C334.231 290.464 336.043 284.408 336.058 282.671C336.406 254.338 316.742 171.181 285.811 151.169C282.316 148.594 278.139 147.108 273.804 146.895H273.819ZM325.169 333.78C324.982 335.309 325.266 336.858 325.985 338.22C333.536 348.37 352.838 343.99 362.232 339.172L361.054 338.568C359.621 337.752 358.101 337.099 356.523 336.619C346.171 334.567 335.631 333.615 325.078 333.78H325.169Z" fill="#9077FF"/>
<path d="M127.908 366.206C125.584 366.359 123.272 365.766 121.308 364.515C119.42 363.095 118.65 360.815 119.028 357.764C122.048 332.617 138.994 304.51 153.946 279.726C159.549 270.438 164.835 261.603 169.306 253.281C171.375 249.414 173.716 244.325 176.434 238.435C187.656 214.073 204.601 177.282 226.833 176.255C235.321 175.878 242.193 169.897 248.853 164.173C258.534 155.76 268.487 147.076 283.183 156.5C313.026 175.727 330.138 251.121 329.685 279.137C329.088 283.092 328.168 286.992 326.936 290.797C324.278 300.417 320.14 315.354 321.061 323.193C331.772 323.032 342.474 323.902 353.019 325.791C354.504 326.109 355.963 326.538 357.384 327.074L359.559 327.814L361.416 328.388L359.664 329.219C350.603 333.463 329.458 337.692 321.348 328.222C320.571 327.237 320.052 326.075 319.838 324.839C276.537 325.337 223.933 337.511 180.134 349.004C178.247 349.502 174.305 351.164 169.321 353.263C156.543 358.625 138.586 366.206 127.908 366.206ZM270.798 153.918C262.96 153.918 256.526 159.506 249.835 165.306C243.144 171.105 235.91 177.388 226.893 177.811C205.583 178.793 188.864 215.085 177.809 239.114C175.075 245.035 172.734 250.139 170.635 254.051C166.104 262.463 160.848 271.238 155.245 280.542C140.368 305.205 123.528 333.161 120.508 357.99C120.206 360.512 120.749 362.264 122.199 363.352C129.147 368.593 153.916 358.141 168.701 351.889C172.295 350.262 175.97 348.82 179.712 347.569C249.654 329.189 291.821 323.586 319.536 323.208C318.629 315.098 322.481 301.173 325.471 290.389C326.652 286.707 327.551 282.941 328.159 279.122C328.597 252.133 311.274 176.421 282.352 157.769C278.956 155.39 274.942 154.052 270.798 153.918ZM321.363 324.824C321.548 325.707 321.935 326.534 322.496 327.24C329.594 335.532 347.824 332.406 357.233 328.63L356.901 328.509C355.548 327.997 354.16 327.583 352.747 327.271C342.385 325.477 331.879 324.643 321.363 324.779V324.824Z" fill="#9077FF"/>
<path d="M134.161 355.815C131.956 355.971 129.757 355.444 127.863 354.305C126.921 353.566 126.201 352.581 125.783 351.459C125.365 350.338 125.264 349.122 125.492 347.947C127.969 321.713 144.038 293.576 158.22 268.626C162.494 261.074 166.542 254.021 170.151 247.134C171.556 244.461 173.172 241.289 174.924 237.634C185.798 215.538 204.028 178.566 225.761 177.222C233.312 176.784 239.64 172.162 245.818 167.707C255.514 160.684 265.557 153.419 279.618 163.176C307.65 182.719 321.575 248.81 321.348 272.703C321.348 276.056 321.137 279.545 320.94 283.275C320.381 294.361 319.792 305.749 323.236 312.832C330.928 312.915 338.606 313.495 346.223 314.569C347.597 314.75 349.047 315.067 350.467 315.354L352.551 315.792L355.028 316.261L352.702 317.227C340.468 322.272 331.86 322.845 326.377 318.964C324.717 317.777 323.348 316.227 322.375 314.433C279.105 314.146 228.268 326.395 186.931 337.843C185.421 338.281 181.735 339.852 177.159 341.845C164.639 347.373 145.277 355.815 134.161 355.815ZM266.177 159.959C259.078 159.959 253.007 164.354 246.694 168.915C240.381 173.476 233.796 178.249 225.851 178.717C204.994 179.94 187.006 216.475 176.268 238.223C174.456 241.893 172.9 245.065 171.496 247.753C167.856 254.67 163.808 261.784 159.534 269.305C145.428 294.059 129.449 322.166 126.987 348.007C126.788 348.921 126.847 349.872 127.156 350.754C127.466 351.637 128.013 352.416 128.739 353.006C135.958 358.217 162.358 346.678 176.555 340.486C181.358 338.387 184.832 336.861 186.523 336.393C254.864 317.469 295.069 312.621 321.575 312.832C318.297 305.371 318.871 294.15 319.43 283.215C319.626 279.53 319.807 276.056 319.838 272.734C320.11 249.067 306.366 183.731 278.757 164.49C275.145 161.694 270.742 160.109 266.177 159.959ZM324.157 314.478C324.966 315.762 326.018 316.875 327.253 317.756C331.935 321.063 339.336 320.776 349.787 316.774C348.518 316.502 347.22 316.245 346.026 316.079C338.777 315.1 331.473 314.576 324.157 314.509V314.478Z" fill="#9077FF"/>
<path d="M140.791 342.495C138.514 342.63 136.25 342.071 134.297 340.894C133.3 340.135 132.527 339.122 132.059 337.96C131.591 336.798 131.446 335.531 131.639 334.294C133.315 307.954 148.494 280.466 161.845 256.211C165.122 250.29 168.203 244.702 171.058 239.22L172.961 235.535C183.367 215.387 202.744 177.856 224.311 175.832C230.095 175.289 235.623 172.283 241.483 169.096C251.98 163.403 262.839 157.512 275.54 166.438C301.095 184.426 312.467 239.794 312.618 264.064C312.618 266.058 312.618 268.037 312.618 270.015C312.618 282.883 312.498 295.071 318.373 301.142C324.64 301.142 330.833 301.445 336.889 302.034C338.309 302.169 339.774 302.351 341.239 302.532L343.444 302.804L347.023 303.227L343.565 304.269C332.192 307.727 324.142 307.531 318.947 303.665C318.529 303.352 318.13 303.014 317.753 302.653H317.602C275.314 302.653 229.053 314.388 192.036 325.156C190.133 325.715 186.417 327.331 181.705 329.37C169.079 334.822 151.439 342.495 140.791 342.495ZM262.038 163.342C255.227 163.342 248.823 166.831 242.178 170.426C236.454 173.537 230.533 176.769 224.432 177.343C203.741 179.291 184.605 216.324 174.335 236.245L172.432 239.93C169.562 245.427 166.481 251.031 163.204 256.951C149.898 281.116 134.81 308.407 133.149 334.414C132.973 335.39 133.066 336.396 133.42 337.322C133.775 338.249 134.375 339.061 135.158 339.67C142.422 344.79 166.632 334.279 181.086 327.996C185.843 325.942 189.604 324.31 191.658 323.721C228.419 313.029 274.287 301.399 316.409 301.173C311.048 294.376 311.048 282.52 311.048 270.015C311.048 268.037 311.048 266.058 311.048 264.08C310.897 240.066 299.72 185.347 274.604 167.677C270.978 164.941 266.579 163.424 262.038 163.342ZM320.11 302.668C324.338 305.688 330.682 306.006 339.441 303.831L336.708 303.529C331.301 303.015 325.758 302.743 320.11 302.668Z" fill="#9077FF"/>
<path d="M147.814 326.304C145.297 326.446 142.795 325.836 140.625 324.552C139.568 323.771 138.734 322.727 138.204 321.525C137.674 320.322 137.468 319.002 137.604 317.695C138.042 292.896 152.209 266.828 164.699 243.842C167.312 239.024 169.789 234.478 172.1 230.022L172.266 229.72C181.554 211.778 200.962 174.473 222.589 172.495C227.892 171.768 233.077 170.346 238.009 168.266C248.295 164.46 258.912 160.533 271.13 169.489C293.876 186.178 302.952 234.115 303.602 253.417C303.602 254.837 303.693 256.287 303.723 257.736C304.025 269.668 304.342 282.007 311.138 287.595C316.012 287.595 320.814 287.822 325.547 288.275C326.981 288.411 328.462 288.622 329.957 288.818L332.177 289.12L335.968 289.604L332.283 290.601C322.571 293.229 315.503 292.745 310.685 289.09H310.61H310.277C274.362 289.09 234.551 299.783 196.476 310.944C194.422 311.549 190.948 312.968 186.553 314.766C174.773 319.583 158.341 326.304 147.814 326.304ZM255.453 165.532C249.699 165.532 244.171 167.571 238.478 169.686C233.42 171.813 228.103 173.261 222.665 173.99C201.807 175.893 182.672 212.714 173.61 230.415L173.444 230.717C171.118 235.248 168.656 239.779 166.028 244.551C153.614 267.402 139.538 293.289 139.115 317.726C138.988 318.789 139.147 319.867 139.574 320.849C140.001 321.831 140.682 322.681 141.546 323.314C149.098 328.479 172.19 319.025 185.979 313.391C190.42 311.579 193.924 310.144 196.053 309.51C233.811 298.454 273.184 287.852 308.933 287.595C302.817 281.207 302.514 269.305 302.212 257.767C302.212 256.332 302.137 254.882 302.092 253.462C301.457 234.387 292.546 187.009 270.239 170.713C266.023 167.392 260.821 165.569 255.453 165.532ZM313.464 289.136C317.059 290.918 321.801 291.235 327.842 290.072C326.997 289.966 326.166 289.861 325.335 289.785C321.439 289.423 317.482 289.196 313.464 289.136Z" fill="#9077FF"/>
<path d="M154.822 308.588C151.973 308.752 149.141 308.052 146.696 306.579C145.494 305.682 144.545 304.488 143.941 303.114C143.338 301.74 143.101 300.234 143.253 298.741C143.887 269.094 186.463 170.365 220.505 167.677C224.818 167.237 229.093 166.484 233.297 165.426C244.322 162.934 254.744 160.578 266.146 169.595C285.554 184.97 292.939 221.897 294.238 241.289C294.238 242.437 294.374 243.63 294.449 244.853C295.084 255.667 295.809 267.946 302.892 273.156C306.139 273.156 309.356 273.353 312.513 273.64C314.023 273.776 315.533 274.032 317.119 274.289C317.904 274.425 318.629 274.561 319.43 274.667L323.145 275.226L319.505 276.147C312.18 278.005 306.577 277.521 302.394 274.637H301.321C271.115 274.637 236.726 284.544 206.021 293.41L199.361 295.328C197.85 295.766 195.102 296.838 191.673 298.212C181.282 302.351 165.53 308.588 154.822 308.588ZM248.174 164.701C243.26 164.899 238.383 165.633 233.629 166.891C229.356 167.97 225.01 168.737 220.626 169.187C206.489 170.32 188.32 190.226 170.786 223.815C156.272 251.559 145.11 283.789 144.778 298.771C144.627 300.015 144.805 301.277 145.296 302.43C145.786 303.583 146.571 304.587 147.572 305.341C155.577 310.899 178.7 301.762 191.129 296.838C194.603 295.464 197.352 294.361 198.953 293.908L205.628 291.99C236.167 283.17 270.3 273.323 300.566 273.156C294.253 267.115 293.573 255.35 293.015 244.929C293.015 243.721 292.879 242.543 292.803 241.38C291.519 222.244 284.285 185.831 265.285 170.788C260.488 166.786 254.42 164.628 248.174 164.701ZM305.747 274.742C308.741 275.794 311.956 276.054 315.08 275.497C314.159 275.362 313.238 275.226 312.377 275.15C310.202 274.939 308.027 274.742 305.747 274.742Z" fill="#9077FF"/>
<path d="M161.799 288.547C158.58 288.737 155.378 287.947 152.617 286.281C151.367 285.359 150.366 284.14 149.704 282.735C149.042 281.33 148.74 279.782 148.826 278.231C148.63 263.853 157.888 235.459 170.755 210.69C179.923 193.08 198.303 163.342 218.33 161.847C236.952 160.458 252.055 164.702 263.216 174.473C276.069 185.725 283.318 203.788 284.753 228.165V229.297C285.297 238.827 286.052 251.952 293.075 257.268C293.557 257.623 294.061 257.946 294.585 258.235C295.864 258.235 297.133 258.28 298.391 258.371C300.113 258.461 301.986 258.703 303.783 258.945C304.689 259.065 305.611 259.186 306.502 259.277L311.199 259.805L306.562 260.772C302.447 261.86 298.083 261.492 294.208 259.73C269.107 259.292 241.604 267.085 214.932 274.637C210.159 275.996 205.447 277.325 200.826 278.594C199.179 279.047 196.702 279.892 193.848 280.874C184.937 283.955 171.631 288.547 161.799 288.547ZM225.051 163.101C222.891 163.101 220.701 163.191 218.436 163.357C185.843 165.789 149.974 251.499 150.336 278.141C150.245 279.456 150.487 280.774 151.039 281.972C151.59 283.17 152.434 284.211 153.493 284.997C161.271 290.465 181.373 283.487 193.38 279.394C196.265 278.397 198.772 277.536 200.463 277.083C205.07 275.815 209.782 274.486 214.554 273.126C240.501 265.786 267.249 258.205 291.897 258.144C284.648 252.209 283.877 239.009 283.318 229.327V228.195C281.914 204.241 274.831 186.525 262.295 175.546C252.72 167.299 240.229 163.101 225.051 163.101Z" fill="#9077FF"/>
<path d="M171.405 264.925C164.79 264.925 159.715 264.019 156.891 261.829C156.101 261.252 155.458 260.497 155.012 259.627C154.566 258.756 154.33 257.793 154.323 256.815C153.81 230.943 181.313 159.083 216.019 155.428C230.503 153.918 242.873 157.256 252.78 165.351C265.134 175.425 273.079 192.869 275.178 214.436L275.344 216.082C276.492 228.164 277.791 242.014 292.531 243.766L292.35 245.276C291.368 245.17 290.372 245.019 289.33 244.884C287.411 244.612 285.418 244.34 283.651 244.264C278.486 244.023 263.73 247.527 246.648 251.559C220.701 257.691 190.027 264.925 171.405 264.925ZM222.65 156.606C220.49 156.611 218.333 156.727 216.185 156.954C183.533 160.382 155.305 230.641 155.773 256.785C155.777 257.537 155.959 258.278 156.302 258.947C156.646 259.616 157.143 260.195 157.752 260.636C167.977 268.565 213.24 257.887 246.286 250.064C264.183 245.85 278.304 242.512 283.696 242.739H284.542C275.812 237.589 274.695 225.914 273.773 216.173L273.622 214.526C271.568 193.382 263.805 176.301 251.768 166.468C243.528 159.851 233.215 156.358 222.65 156.606Z" fill="#9077FF"/>
<path d="M178.669 245.019C171.979 245.019 166.587 244.038 163.31 241.636C162.285 240.906 161.439 239.954 160.834 238.85C160.23 237.746 159.884 236.52 159.821 235.263C159.02 223.437 165.349 202.565 175.181 184.486C180.693 174.337 195.509 150.565 213.739 148.964C230.911 147.454 242.646 156.063 249.473 163.539C258.565 173.971 264.196 186.969 265.588 200.737C266.992 213.394 267.913 221.746 279.09 228.104L282.11 229.796L278.682 229.509C277.594 229.418 276.477 229.297 275.344 229.176C273.235 228.903 271.112 228.741 268.986 228.693C263.79 228.693 252.236 231.442 238.78 234.629C218.542 239.371 194.754 245.019 178.669 245.019ZM217.092 150.323C216.019 150.323 214.947 150.323 213.875 150.474C186.266 152.891 159.73 211.43 161.331 235.172C161.375 236.207 161.657 237.219 162.155 238.127C162.652 239.036 163.352 239.818 164.201 240.413C174.773 248.221 211.594 239.477 238.447 233.073C251.919 229.871 263.549 227.107 268.925 227.107C270.964 227.107 273.245 227.364 275.45 227.591H275.586C266.282 221.051 265.331 212.488 264.062 200.813C260.407 167.36 237.753 150.323 217.092 150.323Z" fill="#9077FF"/>
<path d="M185.964 225.114C178.669 225.114 172.628 224.056 169.034 221.323C167.92 220.499 167.01 219.431 166.374 218.2C165.738 216.969 165.392 215.609 165.364 214.224C164.926 203.833 170.604 186.556 179.485 171.256C189.664 153.691 201.354 143.316 211.534 142.817C221.245 142.334 231.817 146.714 240.532 154.809C250.107 163.69 255.771 175.53 256.073 187.311C256.014 194.607 258.711 201.656 263.624 207.05C264.893 208.561 265.723 209.542 265.316 210.569C264.802 211.883 262.854 212.231 254.744 213.167C252.1 213.469 246.814 214.677 240.139 216.263C224.704 219.858 202.306 225.114 185.964 225.114ZM212.984 144.297H211.609C189.453 145.385 166.058 194.545 166.874 214.134C166.875 215.293 167.149 216.436 167.674 217.47C168.199 218.503 168.959 219.399 169.895 220.084C180.95 228.497 217.696 219.903 239.64 214.768C246.376 213.182 251.723 211.944 254.426 211.627C258.61 211.158 263.367 210.615 263.79 209.965C263.383 209.238 262.874 208.572 262.28 207.987C257.171 202.32 254.379 194.94 254.457 187.311C254.17 175.953 248.672 164.49 239.354 155.881C231.5 148.481 221.94 144.297 212.984 144.297Z" fill="#9077FF"/>
<path d="M192.021 205.585C184.907 205.585 178.775 204.558 175.03 201.764C173.868 200.925 172.904 199.841 172.207 198.588C171.511 197.335 171.097 195.945 170.997 194.515C170.031 183.142 179.243 161.817 190.737 148.874C197.171 141.624 203.65 137.682 209.449 137.501C226.773 136.897 245.244 155.322 246.679 174.654C247.022 180.007 248.305 185.258 250.469 190.165C251.421 192.461 251.98 193.865 251.315 195.074C250.454 196.584 247.992 197.098 241.166 198.094C238.749 198.457 235.276 199.182 231.258 200.012C220.293 202.368 204.632 205.585 192.021 205.585ZM210.144 138.996H209.465C204.088 139.162 197.986 142.923 191.839 149.855C180.572 162.557 171.526 183.339 172.477 194.364C172.554 195.582 172.899 196.768 173.49 197.836C174.08 198.904 174.9 199.828 175.891 200.541C185.768 207.896 214.026 202.051 230.926 198.623C234.959 197.792 238.478 197.113 240.909 196.69C246.18 195.889 249.427 195.33 249.971 194.379C250.288 193.805 249.76 192.536 249.035 190.784C246.818 185.703 245.5 180.277 245.138 174.745C243.673 154.658 224.96 138.996 210.174 138.996H210.144Z" fill="#9077FF"/>
<path d="M198.454 187.643C191.235 187.643 184.665 186.631 180.693 183.626C179.59 182.827 178.672 181.799 178.003 180.613C177.333 179.427 176.927 178.111 176.812 176.754C175.981 168.311 181.645 154.794 190.284 144.614C196.098 137.758 202.23 133.785 207.531 133.438C213.346 133.061 220.475 136.368 226.622 142.273C233.04 148.435 237.013 156.108 237.496 163.312C237.768 167.36 238.266 170.441 238.659 172.902C239.927 180.726 239.822 182.085 229.023 184.018L227.86 184.23C220.671 185.513 208.891 187.643 198.454 187.643ZM208.438 134.918H207.622C202.744 135.235 197.05 139.011 191.432 145.566C183.17 155.292 177.537 168.628 178.322 176.572C178.413 177.723 178.754 178.84 179.323 179.845C179.892 180.85 180.674 181.717 181.615 182.387C190.797 189.334 216.578 184.698 227.588 182.704L228.766 182.493C238.402 180.771 238.342 180.333 237.164 173.114C236.771 170.622 236.257 167.511 235.986 163.372C235.004 148.798 219.417 134.918 208.438 134.918Z" fill="#9077FF"/>
<path d="M201.732 172.6C196.053 172.6 190.495 171.755 186.901 169.021C185.748 168.154 184.792 167.053 184.094 165.791C183.397 164.528 182.974 163.133 182.853 161.696C181.343 147.862 192.746 132.713 205.885 131.112C208.224 130.79 210.603 130.943 212.881 131.56C215.159 132.178 217.29 133.248 219.146 134.707C224.175 138.649 227.618 145.551 228.6 153.646C230.11 166.544 230.11 169.036 218.708 170.879C213.104 171.902 207.427 172.477 201.732 172.6ZM208.347 132.472C207.595 132.473 206.843 132.518 206.097 132.607C193.924 134.118 182.974 148.692 184.378 161.53C184.468 162.764 184.824 163.965 185.421 165.049C186.018 166.134 186.842 167.076 187.837 167.813C194.935 173.204 210.839 170.622 218.496 169.323C228.51 167.707 228.661 166.484 227.12 153.767C226.199 146.064 222.967 139.54 218.255 135.839C215.434 133.617 211.937 132.429 208.347 132.472Z" fill="#9077FF"/>
<path d="M204.949 159.461C200.886 159.461 195.887 158.842 192.504 156.214C191.546 155.475 190.754 154.544 190.179 153.479C189.604 152.415 189.259 151.242 189.166 150.036C188.88 145.494 190.313 141.01 193.181 137.476C196.05 133.942 200.143 131.616 204.647 130.961C206.599 130.735 208.578 130.978 210.417 131.672C212.256 132.366 213.902 133.489 215.219 134.949C217.969 138.1 219.641 142.047 219.991 146.215C220.898 154.839 218.632 157.966 210.643 159.068C208.756 159.33 206.854 159.461 204.949 159.461ZM206.112 132.396C205.678 132.392 205.244 132.417 204.813 132.472C197.412 133.257 189.8 140.869 190.661 149.901C190.743 150.902 191.033 151.876 191.511 152.76C191.989 153.644 192.646 154.419 193.44 155.036C197.337 158.056 204.813 158.373 210.507 157.573C216.926 156.682 219.463 154.93 218.557 146.382C218.255 142.535 216.724 138.887 214.192 135.976C213.173 134.844 211.927 133.94 210.534 133.323C209.142 132.706 207.635 132.39 206.112 132.396Z" fill="#9077FF"/>
<path d="M204.586 148.919C202.184 148.98 199.836 148.206 197.941 146.729C197.318 146.206 196.808 145.561 196.445 144.834C196.081 144.107 195.87 143.312 195.827 142.5C195.73 140.24 196.516 138.031 198.018 136.34C199.52 134.649 201.621 133.609 203.876 133.438C208.166 133.151 211.655 136.58 211.972 141.428C212.274 145.777 209.933 148.496 205.538 148.858C205.236 148.899 204.919 148.919 204.586 148.919ZM204.375 134.948H203.982C202.123 135.08 200.389 135.932 199.148 137.322C197.907 138.713 197.257 140.532 197.337 142.394C197.363 142.999 197.51 143.593 197.769 144.141C198.029 144.688 198.395 145.178 198.847 145.581C200.707 146.966 203.021 147.597 205.326 147.348C208.936 147.046 210.643 145.098 210.401 141.533C210.205 137.712 207.622 134.948 204.375 134.948Z" fill="#9077FF"/>
<path d="M240.214 435.182L238.704 434.804C244.957 410.368 272.308 399.131 298.739 388.272C327.238 376.567 354.167 365.512 355.254 339.353C356.191 316.578 326.438 287.61 306.743 268.369C301.805 263.566 297.546 259.413 294.208 255.848C287.849 249.052 281.083 242.135 274.574 235.444C246.497 206.748 217.469 177.041 202.925 140.008L204.33 139.464C218.753 176.195 247.69 205.782 275.661 234.387C282.201 241.078 288.967 247.98 295.295 254.821C298.603 258.355 302.847 262.494 307.785 267.281C328.854 287.806 357.716 315.913 356.75 339.353C355.617 366.539 328.265 377.715 299.358 389.616C273.29 400.384 246.286 411.47 240.214 435.182Z" fill="#9077FF"/>
<path d="M283.515 457.822H282.005C282.79 431.618 304.131 414.823 324.776 398.572C345.422 382.321 365.177 366.75 363.893 342.887C362.383 315.158 326.755 280.013 303.164 256.8C297.923 251.635 293.392 247.164 289.783 243.343C283.47 236.653 276.839 229.901 270.436 223.362C245.516 197.974 219.75 171.709 202.985 140.295L204.314 139.585C220.928 170.864 246.603 197.052 271.508 222.365C277.927 228.905 284.557 235.671 290.885 242.361C294.48 246.167 298.995 250.623 304.221 255.773C327.978 279.062 363.908 314.448 365.419 342.706C366.733 367.369 346.812 383.061 325.713 399.66C305.339 415.744 284.27 432.328 283.515 457.822Z" fill="#9077FF"/>
<path d="M319.717 482.757C312.739 454.061 324.248 430.998 335.484 408.631C345.271 389.087 354.499 370.616 352.596 348.611C349.576 313.633 320.88 279.651 297.833 252.344L291.263 244.536C280.993 232.212 269.952 220.099 259.274 208.395C239.641 186.933 219.433 164.747 203.016 140.219L204.284 139.374C220.626 163.81 240.834 185.967 260.392 207.337C271.07 219.057 282.125 231.17 292.426 243.585C294.54 246.107 296.73 248.72 298.995 251.393C322.164 278.865 351.01 313.044 354.091 348.49C356.04 370.934 346.283 390.447 336.844 409.326C325.773 431.451 314.34 454.318 321.182 482.409L319.717 482.757Z" fill="#9077FF"/>
<path d="M361.25 465.856C359.121 463.123 356.991 460.51 354.937 457.957C343.323 443.625 333.294 431.24 331.573 411.047C330.682 400.687 332.313 390.462 333.883 380.584C335.454 370.707 337.04 360.724 336.209 350.575C330.802 284.982 279.467 227.168 234.173 176.165C223.072 163.659 212.591 151.849 203.061 140.28L204.239 139.313C213.739 150.867 224.22 162.663 235.306 175.153C280.751 226.337 332.267 284.363 337.72 350.454C338.565 360.784 336.949 370.964 335.379 380.811C333.808 390.658 332.207 400.747 333.083 410.911C334.759 430.651 344.652 442.869 356.115 457.006C358.184 459.558 360.299 462.186 362.428 464.92L361.25 465.856Z" fill="#9077FF"/>
<path d="M419.321 426.03C409.927 420.547 399.265 416.273 388.949 412.135C375.145 406.592 360.873 400.853 349.138 392.123C334.306 381.083 331.618 368.653 328.22 352.855C327.737 350.65 327.253 348.324 326.71 345.998C306.517 258.688 248.37 185.951 203.106 140.325L204.179 139.268C249.578 185.03 308.027 257.993 328.175 345.727C328.718 348.098 329.217 350.393 329.685 352.614C333.143 368.638 335.651 380.222 350.029 390.93C361.613 399.539 375.794 405.233 389.508 410.745C399.869 414.899 410.652 419.203 420.077 424.731L419.321 426.03Z" fill="#9077FF"/>
<path d="M479.598 375.933C469.947 374.574 458.363 373.788 446.099 372.912C403.237 370.028 349.908 366.448 327.45 334.792C311.32 312.047 299.071 285.45 287.23 259.745C266.705 215.206 245.485 169.127 203.227 140.295L204.073 139.057C246.678 168.13 267.989 214.391 288.65 259.111C300.476 284.786 312.694 311.292 328.748 333.916C350.784 364.983 403.72 368.547 446.25 371.402C458.544 372.233 470.173 373.003 479.87 374.423L479.598 375.933Z" fill="#9077FF"/>
<path d="M487.149 337.163C476.033 336.378 463.09 336.348 449.392 336.318C408.976 336.318 363.168 336.151 334.11 317.348C314.34 304.541 301.08 278.82 289.39 256.135C285.599 248.78 282.02 241.833 278.425 235.686C277.126 233.481 275.827 231.261 274.529 229.025C255.182 195.905 235.185 161.666 203.212 140.431L204.058 139.162C236.318 160.594 256.405 195.044 275.827 228.27L279.724 234.916C283.349 241.108 286.928 248.07 290.734 255.441C302.333 277.959 315.488 303.499 334.926 316.079C363.621 334.656 409.187 334.732 449.392 334.807C463.105 334.807 476.064 334.807 487.24 335.653L487.149 337.163Z" fill="#9077FF"/>
<path d="M460.1 304.556C447.292 303.348 433.322 303.408 418.551 303.468C391.094 303.589 362.67 303.71 339.562 295.524C315.473 286.991 299.494 261.301 285.388 238.631C282.458 233.919 279.694 229.463 276.945 225.325C273.607 220.296 270.269 215.07 267.037 210.011C249.895 183.112 232.18 155.292 203.303 140.537L203.997 139.208C233.237 154.22 251.074 182.206 268.321 209.271C271.538 214.33 274.876 219.556 278.199 224.57C280.962 228.723 283.726 233.179 286.671 237.906C300.642 260.364 316.47 285.813 340.061 294.165C362.957 302.275 391.215 302.154 418.597 302.034C433.413 302.034 447.413 301.913 460.296 303.121L460.1 304.556Z" fill="#9077FF"/>
<path d="M344.607 269.622C342.678 269.635 340.75 269.514 338.837 269.26C315.533 265.907 297.787 241.606 283.53 222.078C281.053 218.68 278.712 215.478 276.477 212.563C272.686 207.639 268.925 202.55 265.376 197.626C247.932 173.718 231.455 151.139 203.454 140.506L203.997 139.087C232.482 149.885 249.095 172.646 266.675 196.735C270.254 201.643 273.97 206.733 277.746 211.642C279.996 214.572 282.276 217.773 284.829 221.187C298.905 240.488 316.455 264.502 339.2 267.765C347.552 268.958 358.215 266.964 368.545 265.031C375.418 263.557 382.389 262.583 389.402 262.116C395.746 261.92 402.164 261.965 408.372 261.995C420.59 262.086 433.216 262.176 445.616 260.379L445.827 261.889C433.307 263.702 420.635 263.611 408.372 263.521C402.164 263.521 395.761 263.445 389.448 263.641C382.51 264.107 375.614 265.076 368.817 266.541C360.45 268.051 352.007 269.622 344.607 269.622Z" fill="#9077FF"/>
<path d="M320.472 227.606C300.959 227.606 285.977 211.31 272.595 196.735C270.964 194.968 269.378 193.231 267.793 191.555C264.621 188.187 261.585 184.849 258.655 181.617C242.45 163.78 228.449 148.39 203.423 140.522L203.876 139.011C229.295 147.016 243.416 162.542 259.758 180.545C262.688 183.762 265.723 187.099 268.82 190.452C270.33 192.129 272.006 193.881 273.637 195.663C288.378 211.702 305.082 229.886 327.404 225.31C333.657 224.026 338.943 220.779 344.018 217.668C350.059 213.922 356.463 210.116 364.603 209.316C373.574 208.516 381.639 211.612 389.448 214.617C393.927 216.463 398.536 217.978 403.237 219.148L402.92 220.658C398.14 219.472 393.455 217.932 388.904 216.052C380.914 213.031 373.363 210.011 364.739 210.857C356.946 211.566 350.769 215.387 344.803 218.982C339.577 222.184 334.231 225.491 327.661 226.82C325.297 227.32 322.888 227.583 320.472 227.606Z" fill="#9077FF"/>
<path d="M290.326 192.068C284.738 192.068 278.773 189.818 271.448 185.378C262.165 179.566 253.501 172.82 245.591 165.245C233.932 154.673 223.873 145.611 203.469 140.537L203.831 139.026C224.613 144.192 234.792 153.42 246.603 164.097C254.452 171.613 263.056 178.299 272.278 184.049C287.91 193.518 296.655 192.778 309.688 180.892C315.712 175.2 321.188 168.955 326.045 162.24C332.283 154.054 337.206 147.605 344.033 147.318C350.542 147.076 358.396 152.483 369.602 164.928L368.439 166C357.58 153.918 350.044 148.677 344.063 148.889C338.082 149.1 333.491 155.051 327.208 163.221C322.302 170.008 316.771 176.318 310.685 182.07C303.27 188.776 297.077 192.068 290.326 192.068Z" fill="#9077FF"/>
<path d="M269.393 172.223C267.12 172.2 264.856 171.927 262.642 171.407L262.401 171.317C252.524 165.089 243.083 158.197 234.143 150.686C226.38 141.458 216.185 138.075 203.801 140.537L203.499 139.026C216.472 136.444 227.15 140.008 235.215 149.599C244.039 157.006 253.354 163.808 263.096 169.957C279.029 173.416 283.515 164.264 289.722 151.607L291.097 148.813C293.724 143.542 295.627 136.217 297.742 128.469C301.533 114.272 305.837 98.2633 315.563 91.4971C328.477 82.5863 342.19 90.6513 354.288 97.7649C357.308 99.547 360.208 101.239 363.002 102.628L362.338 103.987C359.483 102.553 356.598 100.861 353.533 99.0637C341.239 91.8445 328.537 84.3836 316.409 92.7355C307.151 99.1241 302.922 114.922 299.207 128.862C297.108 136.685 295.144 144.086 292.456 149.493L291.081 152.272C285.705 163.237 281.31 172.223 269.393 172.223Z" fill="#9077FF"/>
<path d="M259.924 161.696C256.179 161.535 252.463 160.973 248.838 160.02H248.672C238.768 154.998 229.77 148.363 222.045 140.386L203.665 140.597V139.087L222.71 138.86L222.937 139.102C230.573 147.036 239.486 153.632 249.306 158.615C266.207 162.466 267.929 161.137 275.269 138.845C277.198 132.456 278.712 125.948 279.799 119.362C282.125 106.902 284.527 94.0343 291.414 84.2929C305.248 64.6589 324.036 68.2836 343.927 72.0594L349.757 73.1317L349.485 74.642L343.655 73.5697C324.248 69.8996 305.898 66.4259 292.652 85.199C285.962 94.6686 283.59 107.37 281.295 119.664C280.209 126.3 278.696 132.858 276.764 139.298C271.145 156.047 268.623 161.696 259.924 161.696Z" fill="#9077FF"/>
<path d="M247.887 161.334C243.129 161.334 238.825 156.939 233.811 151.909C225.987 144.01 217.122 135.054 203.937 140.491L203.363 139.102C217.484 133.272 227.135 143.014 234.883 150.852C240.018 156.032 244.443 160.533 248.959 159.733C252.931 159.038 256.964 154.175 261.268 144.871C266.645 133.272 269.243 122.443 271.553 112.883C276.809 91.0289 280.978 73.7661 313.691 63.2997L314.144 64.81C282.246 75.0196 278.38 91.0742 273.018 113.306C270.692 122.942 268.064 133.846 262.642 145.581C258.112 155.504 253.777 160.488 249.231 161.288C248.785 161.34 248.335 161.355 247.887 161.334Z" fill="#9077FF"/>
<path d="M240.063 171.437L239.58 170.879C237.011 167.702 234.65 164.362 232.512 160.88C224.658 148.798 214.887 133.695 204.118 140.431L203.333 139.162C215.415 131.611 225.564 147.409 233.78 160.05C235.765 163.253 237.917 166.348 240.23 169.323C252.04 158.857 250.409 141.715 248.823 125.116C248.355 120.117 247.902 115.405 247.841 110.95C247.219 82.9038 249.543 54.8699 254.774 27.3091L256.284 27.596C251.077 55.058 248.763 82.9902 249.382 110.935C249.382 115.315 249.895 119.996 250.364 124.98C251.874 141.413 253.701 160.035 240.652 170.969L240.063 171.437Z" fill="#9077FF"/>
<path d="M224.235 178.219L223.646 176.844C218.058 163.75 212.787 150.308 207.939 136.897L204.163 140.355L203.136 139.238L208.604 134.254L208.981 135.311C213.739 148.571 218.934 161.862 224.432 174.836C231.002 162.104 225.942 144.282 221.517 128.484C220.218 123.953 218.995 119.589 218.149 115.662L216.805 109.454C208.845 72.8296 201.339 38.2436 196.083 1.64894L197.594 1.4375C202.834 37.9718 210.341 72.5427 218.285 109.137L219.644 115.345C220.475 119.226 221.698 123.531 222.982 128.077C227.679 144.69 233.01 163.584 225.006 176.935L224.235 178.219Z" fill="#9077FF"/>
<path d="M208.06 184.366C200.841 150.686 189.725 117.233 178.987 84.8668C172.779 66.2145 166.376 46.9279 160.787 27.8225L162.298 27.3997C167.871 46.4748 174.274 65.7463 180.421 84.3986C188.532 108.79 196.838 133.801 203.544 159.068C202.573 152.661 202.36 146.162 202.91 139.706L204.42 139.887C203.031 151.486 206.338 168.764 209.555 184.064L208.06 184.366Z" fill="#9077FF"/>
<path d="M195.691 204.8L194.407 203.803C185.254 196.614 179.893 186.404 178.488 173.476C163.869 141.986 149.279 110.043 135.143 78.327L136.517 77.7078C150.668 109.424 165.213 141.473 179.908 172.978V173.219C181.192 185.166 185.949 194.681 193.969 201.568C193.803 199.136 193.501 196.146 193.168 192.793C191.22 173.703 188.275 144.856 203.318 139.117L203.861 140.536C189.891 145.853 192.881 175.138 194.664 192.627C195.087 196.841 195.464 200.465 195.57 203.199L195.691 204.8Z" fill="#9077FF"/>
<path d="M181.161 237.151L180.18 236.622C154.852 223.03 137.045 186.994 121.278 155.247C115.75 144.071 110.509 133.499 105.42 124.905L106.703 124.135C111.839 132.774 117.094 143.361 122.637 154.583C138.042 185.695 155.471 220.915 179.863 234.734C180.195 230.989 180.27 225.25 180.361 218.121C180.678 192.899 181.161 154.779 193.848 142.757C195.125 141.489 196.652 140.5 198.332 139.856C200.011 139.211 201.807 138.923 203.605 139.011V140.522C202.008 140.432 200.41 140.683 198.918 141.259C197.426 141.834 196.074 142.721 194.951 143.859C182.717 155.428 182.219 194.681 181.932 218.136C181.826 226.035 181.751 232.273 181.313 236.003L181.161 237.151Z" fill="#9077FF"/>
<path d="M161.875 268.867C147.134 268.867 113.258 221.716 81.6475 174.836C77.6452 168.915 74.7605 164.626 73.2502 162.587L74.4585 161.696C75.9688 163.75 78.8836 168.054 82.9011 173.99C101.191 201.175 149.762 273.126 163.582 267.025C169.23 264.518 171.782 224.268 172.643 211.038C172.87 207.564 173.006 205.48 173.096 204.861C173.64 201.523 174.093 197.626 174.607 193.518C177.159 171.558 180.648 141.503 203.635 139.042L203.786 140.552C181.992 142.878 178.594 172.268 176.117 193.684C175.634 197.823 175.181 201.719 174.607 205.087C174.516 205.646 174.365 207.942 174.169 211.128C172.462 238.027 169.94 265.877 164.231 268.399C163.488 268.722 162.685 268.882 161.875 268.867Z" fill="#9077FF"/>
<path d="M142.332 297.729C129.902 297.729 89.9693 249.294 53.133 203.35C45.5814 193.911 40.0839 187.084 38.0299 184.864L39.1324 183.822C41.2771 186.087 46.684 192.884 54.3563 202.414C78.1134 232.046 133.768 301.414 143.464 296.053C154.958 289.528 158.22 264.246 160.591 245.79C161.316 240.126 161.95 235.218 162.721 231.563C163.868 226.05 164.85 220.356 165.892 214.33C170.846 185.544 176.464 152.921 203.423 139.177L204.118 140.537C177.839 153.918 172.281 186.148 167.372 214.542C166.33 220.583 165.349 226.277 164.186 231.819C163.431 235.444 162.811 240.307 162.086 245.941C159.67 264.714 156.362 290.419 144.204 297.291C143.634 297.611 142.985 297.763 142.332 297.729Z" fill="#9077FF"/>
<path d="M121.323 325.126C106.084 325.126 91.54 304.616 80.7413 289.407C78.1436 285.752 75.9084 282.596 73.9601 280.149C52.1815 252.964 33.3631 233.179 12.9589 216.188L13.9255 215.04C34.4052 232.091 53.284 251.876 75.1381 279.273C77.1166 281.75 79.367 284.922 81.9798 288.592C92.5519 303.529 108.576 326.093 123.891 323.465C141.003 320.535 147.905 284.846 152.043 263.536C153.025 258.431 153.885 254.006 154.716 250.744C156.574 243.434 158.235 235.731 159.851 228.27C167.146 194.515 174.697 159.612 203.212 139.238L204.088 140.476C176.057 160.503 168.566 195.119 161.331 228.587C159.715 236.063 158.039 243.781 156.181 251.106C155.35 254.338 154.505 258.733 153.523 263.823C148.992 286.931 142.286 321.849 124.147 324.96C123.212 325.09 122.268 325.145 121.323 325.126Z" fill="#9077FF"/>
<path d="M108.516 353.052C95.3762 353.052 81.6475 336.876 72.3591 325.866C71.0149 324.28 69.7765 322.846 68.674 321.577C64.8227 317.212 61.1224 312.862 57.5581 308.664C41.5036 289.845 26.3401 271.978 2.35648 260.213L3.02101 258.854C27.2916 270.77 42.5457 288.728 58.7059 307.742C62.2703 311.941 65.9705 316.291 69.8067 320.64C70.9092 321.879 72.1477 323.344 73.5069 324.945C82.6594 335.743 97.989 353.822 111.114 351.3C129.781 347.735 140.942 303.544 145.715 284.665C146.409 281.946 146.953 279.802 147.376 278.307C150.563 267.251 153.115 255.652 155.834 243.479C164.488 204.513 173.429 164.233 203.167 139.268L204.133 140.416C174.788 165.109 165.907 205.132 157.314 243.857C154.595 256.105 152.028 267.674 148.826 278.775C148.403 280.285 147.874 282.369 147.18 285.088C142.347 304.239 131.004 349.079 111.385 352.84C110.438 353 109.477 353.071 108.516 353.052Z" fill="#9077FF"/>
<path d="M102.943 373.048C83.4146 373.048 66.4539 351.602 49.9916 330.759C36.9878 314.358 24.709 298.907 11.5694 293.546L12.1282 292.156C25.721 297.578 38.045 313.3 51.1696 329.914C69.2932 352.765 87.9304 376.386 109.452 370.692C130.974 364.998 141.169 319.78 147.376 292.715C148.554 287.535 149.566 283.049 150.472 279.772C153.493 268.792 155.97 257.555 158.613 245.639C167.161 207.066 175.996 167.103 203.106 139.268L204.194 140.325C177.371 167.918 168.581 207.594 160.093 245.971C157.555 257.374 154.958 269.154 151.922 280.179C151.031 283.427 150.019 287.882 148.901 293.047C142.664 320.459 132.288 366.312 109.905 372.157C107.632 372.75 105.292 373.05 102.943 373.048Z" fill="#9077FF"/>
<path d="M107.051 378.742C103.275 378.747 99.5728 377.701 96.3579 375.721C78.0983 364.726 72.193 325.67 67.8433 297.185C66.8227 289.27 65.4012 281.411 63.5843 273.64L65.0946 273.232C66.9324 281.078 68.369 289.012 69.3989 297.004C73.6278 325.217 79.4878 363.85 97.1432 374.422C102.444 377.624 108.606 378.032 115.478 375.646C137.77 367.868 147.346 326.304 153.674 298.801C154.912 293.41 156 288.743 157.027 284.891C160.667 271.404 163.672 257.555 166.587 244.113C174.38 208.289 182.43 171.241 203.016 139.298L204.284 140.114C183.835 171.83 175.815 208.742 168.037 244.43C165.122 257.857 162.101 271.737 158.462 285.209C157.435 289.045 156.362 293.681 155.124 299.073C148.705 326.893 139.024 368.94 115.947 376.99C113.101 378.071 110.094 378.663 107.051 378.742Z" fill="#9077FF"/>
<path d="M112.473 378.455C109.781 378.504 107.13 377.786 104.831 376.386C90.4526 367.43 93.4581 331.907 95.4366 308.422C95.8746 303.166 96.2673 298.605 96.373 295.192H97.8833C97.7776 298.65 97.3849 303.227 96.9469 308.513C94.9835 331.635 92.0384 366.614 105.631 375.072C111.159 378.515 119.224 377.126 129.539 370.903C155.124 355.544 163.778 317.076 170.106 288.999C170.574 286.885 171.042 284.831 171.496 282.837C175.377 265.952 177.914 248.674 180.376 231.955C184.907 201.054 189.634 169.096 203.031 139.449L204.42 140.083C191.175 169.519 186.478 201.372 181.947 232.212C179.485 248.961 176.933 266.269 173.051 283.215C172.583 285.194 172.13 287.248 171.647 289.362C165.273 317.71 156.544 356.525 130.4 372.232C123.438 376.371 117.457 378.455 112.473 378.455Z" fill="#9077FF"/>
<path d="M87.6585 391.791L87.5377 390.281C127.183 387.26 145.987 374.422 157.948 363.624C196.582 328.706 195.872 277.249 195.177 227.485C194.769 197.279 194.331 166.136 202.925 139.57L204.435 140.023C195.902 166.363 196.34 197.415 196.748 227.47C197.443 277.567 198.168 329.355 158.99 364.741C135.852 385.629 108.667 390.175 87.6585 391.791Z" fill="#9077FF"/>
<path d="M96.9922 463.757L95.7689 462.866C107.972 446.253 121.248 428.643 137.499 413.177C145.973 405.424 154.851 398.124 164.095 391.308C178.292 380.434 192.972 369.197 203.469 355.574C222.785 330.473 223.103 299.919 220.777 273.323C219.584 259.398 215.43 243.57 211.035 226.82C203.016 196.237 194.739 164.626 202.925 139.555L204.435 140.038C196.385 164.687 204.617 196.071 212.576 226.428C216.986 243.253 221.139 259.141 222.348 273.247C224.658 300.116 224.371 331.031 204.737 356.525C194.165 370.33 179.364 381.627 165.092 392.546C155.893 399.334 147.056 406.598 138.616 414.31C122.38 429.654 109.15 447.159 96.9922 463.757Z" fill="#9077FF"/>
<path d="M137.257 482.938L135.943 482.213C149.928 456.81 168.52 435.001 196.219 411.516C201.49 406.985 207.395 402.59 213.663 397.923C231.893 384.164 252.554 368.578 261.162 348.959C278.531 309.298 256.269 270.815 234.732 233.586C217.092 203.078 198.847 171.543 202.895 139.766L204.405 139.948C200.418 171.226 218.526 202.535 236.121 232.831C257.84 270.378 280.298 309.207 262.612 349.563C253.852 369.544 233.025 385.251 214.645 399.131C208.407 403.828 202.562 408.283 197.276 412.724C169.638 436.028 151.152 457.701 137.257 482.938Z" fill="#9077FF"/>
<path d="M189.423 458.184L188.124 457.414C203.907 430.862 226.033 415.246 253.309 397.59C257.069 395.159 261.555 392.546 266.297 389.767C286.883 377.685 312.482 362.748 316.938 342.479C322.33 317.831 299.569 288.592 282.956 267.236C280.071 263.536 277.338 260.032 275.012 256.875C268.971 248.629 262.22 240.262 255.71 232.106C233.146 203.969 209.812 174.866 202.849 139.978L204.36 139.676C211.186 174.231 234.4 203.199 256.858 231.2C263.382 239.326 270.118 247.738 276.205 255.999C278.516 259.141 281.234 262.645 284.119 266.345C300.914 287.927 323.931 317.484 318.373 342.827C313.842 363.744 287.865 378.908 267.022 391.156C262.28 393.92 257.825 396.533 254.079 398.95C227.014 416.409 205.039 431.92 189.423 458.184Z" fill="#9077FF"/>
</svg>
